<svg xmlns="http://www.w3.org/2000/svg" xmlns:xlink="http://www.w3.org/1999/xlink" width="23.042" height="25.961" viewBox="0 0 23.042 25.961">
  <defs>
    <clipPath id="clip-path">
      <rect id="Rectangle_228" data-name="Rectangle 228" width="23.042" height="25.961" fill="none"/>
    </clipPath>
    <linearGradient id="linear-gradient" x1="0.067" y1="0.138" x2="0.842" y2="1" gradientUnits="objectBoundingBox">
      <stop offset="0" stop-color="#f8a457"/>
      <stop offset="0.355" stop-color="#e62234"/>
      <stop offset="0.724" stop-color="#c23770"/>
      <stop offset="1" stop-color="#9d1c82"/>
    </linearGradient>
  </defs>
  <g id="Group_662" data-name="Group 662" transform="translate(-108.273 -16)">
    <g id="Group_523" data-name="Group 523" transform="translate(108.273 16)">
      <g id="Group_522" data-name="Group 522" transform="translate(0 0)" clip-path="url(#clip-path)">
        <path id="Path_2238" data-name="Path 2238" d="M16.178,0H4.983L0,23.557l5.6-3.332L6.779,14.68h5.942a11.33,11.33,0,0,1,1.644.11l.287.043,5.643-3.361.083-.07.119-.1a7.716,7.716,0,0,0,2.368-4.236,6.022,6.022,0,0,0-.382-4.038C21.492,1.017,19.371,0,16.178,0m1.7,7.124a3.577,3.577,0,0,1-2.082,2.736,7.525,7.525,0,0,1-3.054.512H7.69L8.951,4.392h5.272a7.221,7.221,0,0,1,2.844.39c.553.262,1.146.763.806,2.342" transform="translate(0 0)" fill="url(#linear-gradient)"/>
        <path id="Path_2239" data-name="Path 2239" d="M15.989,65.558a5.267,5.267,0,0,1-4.057,1.486H7.8L.41,71.455H11.291A10.907,10.907,0,0,0,19.4,68.392a9.244,9.244,0,0,0,2.581-4.621,5.975,5.975,0,0,0-.581-4.63l-.1-.153-4.237,2.528.038.092a2.816,2.816,0,0,1,.061,1.671,4.7,4.7,0,0,1-1.177,2.279" transform="translate(-0.316 -45.494)" fill="url(#linear-gradient)"/>
      </g>
    </g>
  </g>
</svg>
