<?xml version="1.0" encoding="UTF-8"?>
<svg xmlns="http://www.w3.org/2000/svg" version="1.1" viewBox="0 0 166.7 34">
  <defs>
    <style>
      .cls-1 {
        fill: #eb001b;
      }

      .cls-2 {
        fill: #ff5a00;
      }

      .cls-3 {
        fill: #f79e1b;
      }

      .cls-4 {
        fill: #fca700;
      }

      .cls-5 {
        fill: #0055a1;
      }
    </style>
  </defs>
  <!-- Generator: Adobe Illustrator 28.7.10, SVG Export Plug-In . SVG Version: 1.2.0 Build 236)  -->
  <g>
    <g id="Layer_1">
      <g id="Group_1272">
        <g id="Payment_Option_1">
          <path id="Path_229" class="cls-5" d="M93,33.5L98.6.6h8.9l-5.6,32.9h-8.9Z"/>
          <path id="Path_230" class="cls-5" d="M134.5,1.4c-2.6-.9-5.3-1.4-8-1.4-8.9,0-15.1,4.5-15.1,10.8,0,4.7,4.5,7.4,7.9,8.9,3.5,1.6,4.7,2.6,4.7,4.1,0,2.2-2.8,3.2-5.4,3.2-2.9,0-5.8-.5-8.4-1.7l-1.3-.6-1.3,7.4c3.2,1.2,6.6,1.8,10,1.8,9.5,0,15.6-4.4,15.6-11.2,0-3.7-2.3-6.6-7.5-8.9-3.2-1.5-5-2.5-5-4.1s1.6-2.8,5.1-2.8c2.3,0,4.6.4,6.7,1.3l.8.4,1.2-7.1"/>
          <path id="Path_231" class="cls-5" d="M157.5.6h-6.9c-2.1,0-3.8.6-4.7,2.7l-13.3,30.1h9.4s1.5-4,1.9-4.9h11.5c.3,1.1,1.1,4.9,1.1,4.9h8.3L157.5.6M146.4,21.8c.8-1.9,3.6-9.2,3.6-9.2,0,0,.8-1.9,1.2-3.2l.6,2.8s1.7,7.9,2.1,9.5h-7.5Z"/>
          <path id="Path_232" class="cls-5" d="M85.5.6l-8.8,22.4-.9-4.5c-1.6-5.2-6.7-11-12.3-13.8l8,28.8h9.5L95,.6h-9.5"/>
          <path id="Path_233" class="cls-4" d="M68.6.6h-14.4v.7c11.2,2.7,18.6,9.3,21.7,17.2l-3.1-15.1c-.6-2.1-2.1-2.7-4.1-2.8"/>
        </g>
        <g id="Mastercard-logo">
          <path d="M7.9,33.9v-2.3c0-.7-.5-1.4-1.2-1.4,0,0-.1,0-.2,0-.5,0-1,.2-1.3.6-.3-.4-.7-.7-1.2-.6-.4,0-.8.2-1,.5v-.5h-.8v3.6h.8v-2c0-.6.3-.9.9-.9s.8.3.8.9v2h.8v-2c0-.5.3-.9.7-.9,0,0,0,0,.1,0,.5,0,.8.3.8.9v2h.9ZM19.6,30.3h-1.3v-1.1h-.8v1.1h-.7v.7h.7v1.7c0,.8.3,1.3,1.2,1.3.3,0,.7,0,1-.3l-.2-.7c-.2.1-.4.2-.7.2-.4,0-.5-.2-.5-.6v-1.6h1.3v-.7h0ZM26.3,30.2c-.4,0-.7.2-.9.5v-.5h-.8v3.6h.8v-2c0-.6.3-.9.8-.9.2,0,.3,0,.5,0l.2-.8c-.2,0-.4,0-.5,0h0ZM16.2,30.6c-.4-.3-1-.4-1.5-.4-.9,0-1.5.5-1.5,1.2s.5.9,1.2,1h.4c.4.1.6.2.6.4s-.3.5-.8.5c-.4,0-.8-.1-1.2-.4l-.4.6c.5.3,1,.5,1.5.5,1,0,1.7-.5,1.7-1.2s-.5-1-1.2-1.1h-.4c-.3,0-.6-.2-.6-.4s.3-.4.7-.4c.4,0,.8.1,1.1.3l.3-.6h0ZM37.2,30.2c-.4,0-.7.2-.9.5v-.5h-.8v3.6h.8v-2c0-.6.3-.9.8-.9.2,0,.3,0,.5,0l.2-.7c-.2,0-.4,0-.5,0h0ZM27.1,32.1c0,1,.7,1.8,1.7,1.9,0,0,.1,0,.2,0,.5,0,.9-.1,1.3-.4l-.4-.6c-.3.2-.6.3-.9.3-.6,0-1.1-.4-1.1-1,0,0,0,0,0-.1,0-.6.4-1.1,1-1.2,0,0,0,0,0,0,.3,0,.7.1.9.3l.4-.6c-.4-.3-.8-.4-1.3-.4-1,0-1.8.7-1.9,1.7,0,0,0,.1,0,.2h0ZM34.4,32.1v-1.8h-.8v.5c-.3-.3-.7-.5-1.1-.5-1,0-1.8.9-1.8,2,0,1,.8,1.8,1.8,1.8.4,0,.9-.2,1.1-.5v.5h.8v-1.8h0ZM31.5,32.1c0-.6.4-1.1,1-1.2s1.1.4,1.2,1c0,0,0,0,0,.1,0,.6-.4,1.1-1,1.2s-1.1-.4-1.2-1c0,0,0,0,0-.1ZM22.1,30.2c-1,0-1.9.9-1.8,1.9,0,1,.9,1.8,1.9,1.8.5,0,1-.2,1.5-.5l-.4-.6c-.3.2-.7.4-1.1.4-.5,0-1-.3-1.1-.9h2.7v-.3c.1-.9-.5-1.8-1.4-1.9,0,0-.2,0-.3,0h0ZM22.1,30.9c.5,0,.9.4.9.9,0,0,0,0,0,0h-1.9c0-.5.5-.9,1-.9h0ZM41.6,32.1v-3.2h-.8v1.9c-.3-.3-.7-.5-1.1-.5-1,0-1.8.9-1.8,2,0,1,.8,1.8,1.8,1.8.4,0,.9-.2,1.1-.5v.5h.8v-1.8h0ZM38.7,32.1c0-.6.4-1.1,1-1.2s1.1.4,1.2,1c0,0,0,0,0,.1,0,.6-.4,1.1-1,1.2s-1.1-.4-1.2-1c0,0,0,0,0-.1ZM12.4,32.1v-1.8h-.8v.5c-.3-.3-.7-.5-1.1-.5-1,0-1.8.9-1.8,2,0,1,.8,1.8,1.8,1.8.4,0,.9-.2,1.1-.5v.5h.8v-1.8h0ZM9.4,32.1c0-.6.4-1.1,1-1.2.6,0,1.1.4,1.2,1,0,0,0,0,0,.1,0,.6-.4,1.1-1,1.2-.6,0-1.1-.4-1.2-1,0,0,0,0,0-.1Z"/>
          <g id="Group_663">
            <rect id="rect19" class="cls-2" x="15.9" y="2.9" width="11.8" height="21.3"/>
            <path class="cls-1" d="M16.7,13.5c0-4.1,1.9-8.1,5.1-10.6C16-1.7,7.5-.7,2.9,5.2-1.7,11.1-.7,19.6,5.2,24.2c2.4,1.9,5.3,2.9,8.3,2.9,3,0,6-1,8.3-2.9-3.3-2.6-5.2-6.5-5.1-10.6Z"/>
            <path id="path22" class="cls-3" d="M43.7,13.5c0,7.5-6,13.5-13.5,13.5-3,0-6-1-8.4-2.9,5.9-4.6,6.9-13.2,2.2-19-.7-.8-1.4-1.6-2.2-2.2,5.9-4.6,14.4-3.6,19,2.3,1.9,2.4,2.9,5.3,2.9,8.4Z"/>
          </g>
        </g>
      </g>
    </g>
  </g>
</svg>