<svg xmlns="http://www.w3.org/2000/svg" xmlns:xlink="http://www.w3.org/1999/xlink" width="254.522" height="34" viewBox="0 0 254.522 34">
  <defs>
    <linearGradient id="linear-gradient" x1="0.106" y1="1" x2="0.098" y2="-0.016" gradientUnits="objectBoundingBox">
      <stop offset="0" stop-color="#ee2441"/>
      <stop offset="1" stop-color="#f15a53"/>
    </linearGradient>
    <clipPath id="clip-path">
      <rect id="Rectangle_322" data-name="Rectangle 322" width="80.523" height="34" fill="url(#linear-gradient)"/>
    </clipPath>
  </defs>
  <g id="Group_1272" data-name="Group 1272" transform="translate(-5206 -860)">
    <g id="Group_1271" data-name="Group 1271" transform="translate(5380 860)">
      <g id="Group_657" data-name="Group 657" transform="translate(0 0)" clip-path="url(#clip-path)">
        <path id="Path_2598" data-name="Path 2598" d="M7.818,31.662c.7.835,1.4,1.62,2.1,2.338H9.146q-.661-.7-1.32-1.469C5.176,29.444,2.558,25.647,0,22.192v-.934c2.57,3.439,5.186,7.262,7.818,10.4m5.793-2.544a19.021,19.021,0,0,1-3.5-6.544C8.79,18.807,7.872,14.537,6.075,10.84A16.746,16.746,0,0,0,2.542,5.868,13.193,13.193,0,0,0,0,4v.815A12.467,12.467,0,0,1,1.489,5.874a17.577,17.577,0,0,1,4.9,7.468C7.23,15.517,7.88,17.835,8.57,20.1c1.036,3.393,2.161,6.667,4.218,9.142a10.857,10.857,0,0,0,3.886,2.988,12.292,12.292,0,0,0,2.373.789A9.314,9.314,0,0,0,20.1,32.5a11.993,11.993,0,0,1-3.206-.948,10.01,10.01,0,0,1-3.284-2.439M8.526,30.456C5.749,26.81,3.183,22.248.493,18.352c-.165-.235-.328-.471-.493-.7v1.02c.131.189.262.378.392.571,2.662,3.928,5.236,8.486,8.071,12.092A29.28,29.28,0,0,0,10.812,34h.845a28.368,28.368,0,0,1-3.131-3.544m1.415-2.4C7.619,24.289,5.886,19.54,3.644,15.4A25.355,25.355,0,0,0,0,10.124v.966a27.684,27.684,0,0,1,3.391,5.2c2.171,4.143,3.91,8.882,6.347,12.639a16.213,16.213,0,0,0,4.345,4.689c.173.117.348.229.529.338q.6-.036,1.149-.107l-.1-.048a14.767,14.767,0,0,1-5.719-5.753m.71-1.2c-2.1-3.821-3.415-8.663-5.431-12.923A21.612,21.612,0,0,0,1.451,8.17,13.93,13.93,0,0,0,0,6.85v.871a19.916,19.916,0,0,1,4.89,7.1c1.928,4.246,3.25,9.08,5.486,12.911a14.222,14.222,0,0,0,4.26,4.783,10.812,10.812,0,0,0,2.248,1.157,12.432,12.432,0,0,0,1.221-.31,10.746,10.746,0,0,1-1.827-.68,12.985,12.985,0,0,1-5.626-5.828m9.285-9.9a23.174,23.174,0,0,0,4.61,4.568c.189.133.378.26.569.378-.046-.276-.1-.547-.171-.815a23.633,23.633,0,0,1-4.96-5.019c-2.862-3.7-5.528-8.333-8.3-12.281A43.97,43.97,0,0,0,8.756,0H7.969A43.9,43.9,0,0,1,11.6,4.689c2.747,3.982,5.421,8.607,8.339,12.267M0,28.064C1.884,30.1,3.8,32.151,5.626,34h.7c-2.04-2.047-4.2-4.379-6.327-6.669Zm9.234,1.189c-2.552-3.7-4.7-8.361-7.166-12.378C1.407,15.8.724,14.77,0,13.817v1.038c.654.916,1.282,1.894,1.892,2.914,2.417,4.037,4.574,8.685,7.21,12.366A20.667,20.667,0,0,0,12.575,34h.686l.3,0a19.718,19.718,0,0,1-4.33-4.745M0,32.772,1.415,34h.672L0,32.191Zm0-8.291v.827c2.377,2.884,4.828,5.892,7.186,8.417L7.444,34h.728c-.352-.364-.7-.743-1.06-1.131C4.777,30.321,2.352,27.327,0,24.482m0,6.047c1.034,1,2.071,1.992,3.085,2.954L3.632,34h.684C2.912,32.682,1.455,31.281,0,29.879ZM20.821,4.234c-.994-.944-1.986-1.9-2.962-2.827A8.541,8.541,0,0,0,16.5.753C18.145,2.326,19.87,3.98,21.572,5.6a9.127,9.127,0,0,0-.751-1.362m-.113,10.005c.109-.153.215-.316.318-.487-2.922-3.534-5.84-7.784-8.677-11.4C11.7,1.531,11.064.743,10.426,0H9.691c.871.994,1.755,2.091,2.648,3.246,2.725,3.522,5.536,7.584,8.369,10.993M14.171,27.963a16.663,16.663,0,0,1-3.155-6.633C9.953,17.5,9.371,13.136,7.725,9.325A15.376,15.376,0,0,0,4.24,4.163,13.9,13.9,0,0,0,0,1.437v.8A13.255,13.255,0,0,1,3.141,4.165a15.918,15.918,0,0,1,4.749,7.7c.718,2.226,1.2,4.594,1.733,6.9a43.182,43.182,0,0,0,1.395,5.013,12.922,12.922,0,0,0,4.039,6.035,11.992,11.992,0,0,0,5.685,2.3,9.883,9.883,0,0,0,.825-.628,13.488,13.488,0,0,1-4.055-1.046,9.494,9.494,0,0,1-3.34-2.471m10.142-4.475A17.514,17.514,0,0,1,18.4,17.743c-2.618-3.751-4.846-8.462-7.379-12.519A30.516,30.516,0,0,0,7.073,0H6.2a29.825,29.825,0,0,1,4.658,6.125c2.483,4.081,4.721,8.786,7.421,12.507a19.434,19.434,0,0,0,4.508,4.646,10.908,10.908,0,0,0,2.427,1.282c.022-.211.034-.427.04-.642a10.143,10.143,0,0,1-.94-.431M22.343,9.345V9.228c0-.207-.006-.413-.02-.618C19.662,5.862,16.9,2.862,14.358.2c-.252-.042-.515-.074-.787-.1.083.085.165.171.25.26,2.7,2.825,5.677,6.061,8.522,8.987m-.515,2.713c.068-.189.129-.384.185-.58-3-3.353-6.115-7.246-9-10.557-.268-.31-.537-.614-.8-.912C12,0,11.782,0,11.561,0H11.5c.519.578,1.048,1.181,1.584,1.8,2.811,3.256,5.828,7.015,8.748,10.255M15.233,21.1C13.1,17.254,11.746,12.384,9.7,8.1A21.918,21.918,0,0,0,5.888,2.318,13.51,13.51,0,0,0,2.976,0H1.519A12.387,12.387,0,0,1,4.266,1.725,19.967,19.967,0,0,1,9.373,9c1.962,4.268,3.322,9.128,5.59,12.979a14.472,14.472,0,0,0,4.3,4.811,11.5,11.5,0,0,0,4.691,1.8c.117-.207.225-.419.326-.632a11.286,11.286,0,0,1-3.367-.994A13.221,13.221,0,0,1,15.233,21.1m.684,5.154a19.181,19.181,0,0,1-3.532-6.564c-1.334-3.777-2.268-8.057-4.077-11.762A16.861,16.861,0,0,0,4.759,2.94,13.6,13.6,0,0,0,0,.052V.8A12.863,12.863,0,0,1,3.7,2.946a17.675,17.675,0,0,1,4.93,7.486c.847,2.179,1.505,4.5,2.205,6.773,1.05,3.4,2.189,6.687,4.256,9.166a10.908,10.908,0,0,0,3.9,3,13.021,13.021,0,0,0,3.681,1.022c.183-.205.358-.421.525-.642A12.565,12.565,0,0,1,19.212,28.7a10.115,10.115,0,0,1-3.294-2.447m.9-6.834c-2.375-3.8-4.167-8.585-6.458-12.754A25.3,25.3,0,0,0,6.391,1.069,14.927,14.927,0,0,0,5.228,0H4.174c.223.161.441.328.652.505a22.825,22.825,0,0,1,5.288,7.059c2.224,4.174,4.023,8.955,6.506,12.742a16.59,16.59,0,0,0,4.4,4.727,10.909,10.909,0,0,0,3.755,1.646c.066-.205.125-.413.175-.62a10.4,10.4,0,0,1-2.342-.835,15.091,15.091,0,0,1-5.8-5.808M40.882,21.8a2.4,2.4,0,1,0,2.4,2.4,2.321,2.321,0,0,0-2.4-2.4m0,5.791a3.333,3.333,0,0,1-3.445-3.381V18.4h1.024v3.336a3.476,3.476,0,0,1,2.421-.924,3.391,3.391,0,1,1,0,6.781m10.11-3.94a2.3,2.3,0,0,0-4.514,0h4.514m-4.538.946a2.207,2.207,0,0,0,2.288,1.992,2.24,2.24,0,0,0,2.022-1.121h1.079a3.32,3.32,0,0,1-6.415-1.27,3.28,3.28,0,0,1,3.314-3.389,3.241,3.241,0,0,1,3.274,3.417c0,.123-.01.248-.022.37Zm11.889-.8c0-1.318-.618-2.055-1.749-2.055A2.039,2.039,0,0,0,54.628,23.9v3.544H53.606v-6.5h.726l.2,1.018a2.727,2.727,0,0,1,2.326-1.159,2.5,2.5,0,0,1,2.509,2.747v3.892H58.343Zm8.1-.147a2.295,2.295,0,0,0-4.512,0H66.44M61.9,24.6a2.206,2.206,0,0,0,2.286,1.992,2.244,2.244,0,0,0,2.024-1.121h1.079a3.32,3.32,0,0,1-6.415-1.27,3.279,3.279,0,0,1,3.312-3.389,3.242,3.242,0,0,1,3.276,3.417c0,.123-.012.248-.022.37Zm10.53-3.6,0,.859h-1.99v5.594H69.421V21.854H68.139v-.859h1.282v-.527A1.808,1.808,0,0,1,71.5,18.4h.92v.825h-.732c-.92,0-1.28.348-1.28,1.268v.505Zm1.242-.044H74.7v6.5H73.677ZM79.736,26.5h.787v.958h-.908a2.105,2.105,0,0,1-2.256-2.272V21.854H75.931v-.859h1.429V19.081h1.022v1.914h2.1v.859h-2.1v3.28A1.237,1.237,0,0,0,79.736,26.5M56.973,11.038a2.376,2.376,0,0,0,.435,1.376,2.255,2.255,0,0,0,1.123.875l.044.01.054-.012a2.272,2.272,0,0,0,1.127-.873,2.32,2.32,0,0,0,.441-1.362,2.123,2.123,0,0,0-.439-1.417,1.459,1.459,0,0,0-1.179-.519,1.442,1.442,0,0,0-1.173.519,2.132,2.132,0,0,0-.433,1.4m23.51-1.791V11.9a2.417,2.417,0,0,1-.682,1.823,2.326,2.326,0,0,1-1.67.6H71.765a2.192,2.192,0,0,1-1.853-.819,2.245,2.245,0,0,1-1.867.819H59.43a1.75,1.75,0,0,1-.851-.187,2.073,2.073,0,0,1-.851.187H50.416a2.187,2.187,0,0,1-1.853-.819,2.264,2.264,0,0,1-1.884.819H39.63a2.155,2.155,0,0,1-1.644-.648,2.433,2.433,0,0,1-.614-1.745V9.619h.982v2.2c0,1.073.485,1.588,1.481,1.592h6.749c.994,0,1.475-.519,1.481-1.592V9.247h.98v2.628c.006,1.034.485,1.533,1.481,1.537h6.546a3.148,3.148,0,0,1-1.04-2.346,2.977,2.977,0,0,1,.751-2.137,2.376,2.376,0,0,1,1.795-.712,2.323,2.323,0,0,1,1.962.92,3.1,3.1,0,0,1,.584,1.93A3.145,3.145,0,0,1,60.1,13.412h7.836c1,0,1.477-.5,1.481-1.537V9.249l.982,0v2.628c0,1.034.485,1.533,1.481,1.537h6.142c1,0,1.477-.5,1.481-1.537V9.249Zm-6.83,9.639a.624.624,0,0,0,.149.453.6.6,0,0,0,.445.155.553.553,0,0,0,.425-.155.644.644,0,0,0,.143-.453.6.6,0,0,0-.143-.435.581.581,0,0,0-.425-.147.613.613,0,0,0-.443.147.577.577,0,0,0-.151.435m5.206-2.6a.629.629,0,0,0,.149.455.6.6,0,0,0,.445.153.552.552,0,0,0,.425-.153.649.649,0,0,0,.143-.455.6.6,0,0,0-.143-.433.573.573,0,0,0-.425-.147.613.613,0,0,0-.443.147.575.575,0,0,0-.151.433M69.326,6.623a.624.624,0,0,0,.149.453.592.592,0,0,0,.445.153.552.552,0,0,0,.425-.153.656.656,0,0,0,.141-.453.6.6,0,0,0-.143-.435.576.576,0,0,0-.423-.147.618.618,0,0,0-.445.147.584.584,0,0,0-.149.435M57.9,6.534a.632.632,0,0,0,.149.455.592.592,0,0,0,.445.153.56.56,0,0,0,.425-.153.658.658,0,0,0,.141-.455.6.6,0,0,0-.143-.433.568.568,0,0,0-.423-.147.618.618,0,0,0-.445.147.583.583,0,0,0-.149.433M43.79,7.584a.624.624,0,0,0,.151.455.6.6,0,0,0,.443.153.55.55,0,0,0,.425-.155.64.64,0,0,0,.143-.453.6.6,0,0,0-.143-.433A.565.565,0,0,0,44.384,7a.612.612,0,0,0-.443.145.58.58,0,0,0-.151.435m-1.58,0a.632.632,0,0,0,.149.455.6.6,0,0,0,.445.153.553.553,0,0,0,.425-.155.64.64,0,0,0,.141-.453.606.606,0,0,0-.141-.433A.565.565,0,0,0,42.8,7a.62.62,0,0,0-.445.145.588.588,0,0,0-.149.435" transform="translate(0 0)" fill="url(#linear-gradient)"/>
      </g>
    </g>
    <g id="Payment_Option_1" data-name="Payment Option 1" transform="translate(5260 860)">
      <path id="Path_229" data-name="Path 229" d="M61.9,33.789,67.508.9h8.947L70.847,33.789Z" transform="translate(-22.899 -0.333)" fill="#0055a1"/>
      <path id="Path_230" data-name="Path 230" d="M111.9,1.386A22.31,22.31,0,0,0,103.9,0C95.018,0,88.78,4.473,88.78,10.837c-.063,4.725,4.473,7.372,7.876,8.947,3.465,1.638,4.662,2.646,4.662,4.1,0,2.205-2.772,3.213-5.355,3.213a19.272,19.272,0,0,1-8.443-1.7l-1.26-.567L85,32.2A28.312,28.312,0,0,0,95.018,33.96c9.451,0,15.563-4.41,15.626-11.215.063-3.717-2.331-6.616-7.5-8.947-3.15-1.512-5.04-2.52-5.04-4.1,0-1.386,1.638-2.835,5.1-2.835a15.516,15.516,0,0,1,6.679,1.26l.819.378,1.2-7.12" transform="translate(-31.445)" fill="#0055a1"/>
      <path id="Path_231" data-name="Path 231" d="M149.55,1H142.62c-2.142,0-3.78.567-4.725,2.709L124.6,33.826h9.388s1.512-4.032,1.89-4.914h11.467c.252,1.134,1.071,4.914,1.071,4.914h8.317L149.55,1M138.524,22.17c.756-1.89,3.591-9.2,3.591-9.2-.063.063.756-1.89,1.2-3.15l.63,2.835s1.7,7.876,2.079,9.514Z" transform="translate(-46.094 -0.37)" fill="#0055a1"/>
      <path id="Path_232" data-name="Path 232" d="M37.015.9,28.194,23.33l-.945-4.536C25.674,13.564,20.571,7.831,14.9,5l8,28.794h9.514L46.529.9H37.015" transform="translate(-5.512 -0.333)" fill="#0055a1"/>
      <path id="Path_233" data-name="Path 233" d="M14.554.9H.126L0,1.593c11.278,2.709,18.713,9.325,21.8,17.2L18.65,3.672C18.083,1.593,16.508.963,14.554.9" transform="translate(0 -0.333)" fill="#fca700"/>
    </g>
    <g id="Mastercard-logo" transform="translate(5206 860)">
      <path id="XMLID_1775_" d="M55.546,664.333v-2.254a1.322,1.322,0,0,0-1.427-1.427,1.478,1.478,0,0,0-1.278.639,1.319,1.319,0,0,0-1.2-.639,1.21,1.21,0,0,0-1.05.525v-.451H49.8v3.606h.788v-1.991c0-.639.337-.941.862-.941s.788.337.788.941v1.991h.788v-1.991a.832.832,0,0,1,.862-.941c.525,0,.788.337.788.941v1.991Zm11.685-3.606H65.953v-1.09h-.788v1.09h-.713v.713h.713v1.654c0,.827.337,1.313,1.238,1.313a2.118,2.118,0,0,0,.976-.262l-.228-.678a1.258,1.258,0,0,1-.678.188c-.376,0-.525-.227-.525-.6V661.44h1.278v-.713Zm6.687-.079a1.068,1.068,0,0,0-.941.525v-.451h-.788v3.606h.788V662.3c0-.6.263-.941.753-.941a2.429,2.429,0,0,1,.49.074l.228-.753a3.135,3.135,0,0,0-.53-.031Zm-10.1.376a2.585,2.585,0,0,0-1.466-.376c-.9,0-1.5.451-1.5,1.164,0,.6.451.941,1.238,1.05l.376.039c.411.075.639.188.639.376,0,.262-.3.451-.827.451a2.078,2.078,0,0,1-1.2-.377l-.376.6a2.641,2.641,0,0,0,1.54.451c1.05,0,1.654-.49,1.654-1.164,0-.639-.49-.976-1.238-1.09l-.376-.039c-.337-.04-.6-.114-.6-.337,0-.263.263-.411.678-.411a2.711,2.711,0,0,1,1.129.3l.333-.639Zm20.958-.376a1.067,1.067,0,0,0-.941.525v-.451h-.788v3.606h.788V662.3c0-.6.263-.941.753-.941a2.429,2.429,0,0,1,.49.074l.228-.744a2.4,2.4,0,0,0-.53-.039Zm-10.065,1.882a1.8,1.8,0,0,0,1.917,1.878A1.887,1.887,0,0,0,77.9,664l-.376-.639a1.506,1.506,0,0,1-.941.337,1.066,1.066,0,0,1-1.09-1.164,1.105,1.105,0,0,1,1.09-1.164,1.54,1.54,0,0,1,.941.337l.376-.639a1.865,1.865,0,0,0-1.278-.411,1.8,1.8,0,0,0-1.917,1.877Zm7.287,0v-1.8H81.2v.451a1.361,1.361,0,0,0-1.129-.525,1.879,1.879,0,0,0,0,3.755,1.274,1.274,0,0,0,1.129-.525v.451h.788v-1.8Zm-2.893,0a1.092,1.092,0,1,1,2.179,0,1.092,1.092,0,1,1-2.179,0Zm-9.427-1.882a1.878,1.878,0,0,0,.039,3.755,2.289,2.289,0,0,0,1.466-.49l-.376-.565a1.788,1.788,0,0,1-1.05.376,1.016,1.016,0,0,1-1.09-.862h2.665v-.3a1.663,1.663,0,0,0-1.654-1.913Zm0,.678a.878.878,0,0,1,.9.862H68.7a.95.95,0,0,1,.976-.862Zm19.571,1.2V659.3h-.788v1.877a1.361,1.361,0,0,0-1.129-.525,1.879,1.879,0,0,0,0,3.755,1.274,1.274,0,0,0,1.129-.525v.451h.788v-1.8Zm-2.893,0a1.092,1.092,0,1,1,2.179,0,1.092,1.092,0,1,1-2.179,0Zm-26.372,0v-1.8h-.788v.451a1.361,1.361,0,0,0-1.129-.525,1.879,1.879,0,0,0,0,3.755,1.274,1.274,0,0,0,1.129-.525v.451h.788v-1.8Zm-2.928,0a1.092,1.092,0,1,1,2.179,0,1.092,1.092,0,1,1-2.179,0Z" transform="translate(-47.621 -630.447)"/>
      <g id="Group_663" data-name="Group 663">
        <rect id="rect19" width="11.833" height="21.26" transform="translate(15.93 2.893)" fill="#ff5a00"/>
        <path id="XMLID_330_" d="M16.717,13.523a13.561,13.561,0,0,1,5.147-10.63,13.518,13.518,0,1,0-8.341,24.153,13.45,13.45,0,0,0,8.341-2.893A13.5,13.5,0,0,1,16.717,13.523Z" fill="#eb001b"/>
        <path id="path22" d="M521.464,13.523A13.51,13.51,0,0,1,499.6,24.153a13.551,13.551,0,0,0,0-21.26,13.51,13.51,0,0,1,21.864,10.63Z" transform="translate(-477.736)" fill="#f79e1b"/>
      </g>
    </g>
  </g>
</svg>
