<?xml version="1.0" encoding="UTF-8"?>
<svg id="Layer_1" data-name="Layer 1" xmlns="http://www.w3.org/2000/svg" version="1.1" viewBox="0 0 536.79 44.61">
  <defs>
    <style>
      .cls-1 {
        fill: #010101;
      }

      .cls-1, .cls-2, .cls-3 {
        stroke-width: 0px;
      }

      .cls-4 {
        fill: none;
        stroke: #fff;
        stroke-miterlimit: 10;
        stroke-width: .25px;
      }

      .cls-2 {
        fill: #fff;
      }

      .cls-3 {
        fill: #64327e;
      }
    </style>
  </defs>
  <rect class="cls-3" width="536.79" height="44.61"/>
  <g>
    <path class="cls-2" d="M453.11,16.47c0-.4.1-.76.29-1.08.19-.32.45-.56.77-.74.32-.18.67-.27,1.04-.27h.28c.12-.32.29-.6.52-.85.23-.24.5-.43.8-.57s.64-.21.99-.21c.45,0,.87.11,1.25.34.38.23.69.53.91.92.22.39.33.81.33,1.26v.37c0,.11.03.21.1.28.07.07.16.11.27.11h.28v1.72h-.28c-.29,0-.54-.05-.75-.16-.21-.11-.38-.26-.51-.46-.22.2-.47.35-.75.46-.28.11-.57.16-.87.16-.36,0-.7-.07-1.02-.21-.32-.14-.6-.34-.83-.59-.23-.25-.4-.54-.51-.86h-.24c-.11,0-.2.04-.27.1-.07.07-.1.16-.1.27v3.49h-1.73v-3.49ZM457.81,16.04c.14,0,.27-.03.38-.1.12-.07.21-.17.28-.28.07-.12.11-.25.11-.39s-.04-.27-.11-.38-.16-.21-.28-.29c-.12-.07-.24-.11-.38-.11s-.28.04-.4.11c-.12.07-.22.17-.29.29-.07.12-.11.24-.11.38s.04.27.11.39c.07.12.17.21.29.28.12.07.25.1.4.1Z"/>
    <path class="cls-2" d="M460.76,17.76v-1.72h4.62v-.25c0-.28-.07-.52-.18-.71-.11-.19-.28-.34-.5-.44s-.48-.15-.79-.15h-2.57v-1.72l3.09-2.8h2.26l-3.18,2.8h.5c.56,0,1.07.12,1.54.38.47.25.84.6,1.12,1.05.28.45.42.96.42,1.53v.33s.62,0,.62,0v1.72h-6.96Z"/>
    <path class="cls-2" d="M467.53,17.76v-1.72h.81c-.08-.11-.14-.22-.19-.35-.05-.13-.07-.26-.07-.4,0-.45.11-.87.33-1.26.22-.39.53-.69.91-.92.38-.23.8-.34,1.25-.34s.87.11,1.25.34c.38.23.69.53.91.92.22.39.33.81.33,1.26v.37c0,.11.04.21.11.28.07.07.16.11.26.11h.3v1.72h-.3c-.28,0-.53-.05-.74-.16-.21-.11-.38-.26-.53-.46-.21.2-.46.35-.73.46-.28.11-.57.16-.88.16h-3.05ZM470.58,16.04c.15,0,.28-.03.39-.1.12-.07.21-.17.28-.28.07-.12.1-.25.1-.39s-.03-.27-.1-.38-.16-.21-.28-.29c-.12-.07-.25-.11-.39-.11s-.27.04-.39.11c-.12.07-.21.17-.28.29-.07.12-.1.24-.1.38s.03.27.1.39c.07.12.16.21.28.28.12.07.25.1.39.1Z"/>
    <path class="cls-2" d="M473.55,17.76v-1.72h.93c-.11-.15-.2-.31-.26-.49-.06-.18-.09-.37-.09-.56,0-.44.1-.83.3-1.17.2-.34.48-.6.83-.79.35-.19.76-.28,1.21-.28.35,0,.68.06,1.01.19.33.13.61.31.84.54l-.91,1.35c-.13-.11-.26-.19-.39-.26-.14-.07-.29-.1-.46-.1-.14,0-.27.03-.39.1-.12.07-.21.16-.28.27-.07.11-.11.24-.11.39s.04.27.11.4c.07.12.16.22.28.29.12.07.25.11.4.11h2.07v1.72h-5.08Z"/>
    <path class="cls-2" d="M479.26,17.76v-1.72h2.65v-.73c0-.16-.03-.3-.1-.43s-.15-.23-.27-.29c-.12-.07-.25-.1-.4-.1-.13,0-.25.02-.35.05-.1.03-.21.08-.32.15,0,0-.01,0-.01,0,0,0,0,0-.02,0l-.66-1.52c.41-.27.87-.4,1.36-.4.46,0,.88.11,1.26.34.38.23.68.54.91.93.22.39.33.82.33,1.28v2.45h-4.38Z"/>
    <path class="cls-2" d="M490.09,17.76c-.63,0-1.18-.13-1.65-.39-.47-.26-.84-.62-1.09-1.08-.26-.46-.39-.97-.39-1.53v-1h1.73v1c0,.41.13.72.38.94.25.22.59.33,1.02.33h.73v-.67c0-.53.11-1,.33-1.39.22-.39.52-.7.92-.91s.85-.31,1.37-.31h1.96v2.84c0,.13.04.23.1.31.07.08.17.12.29.12h.25v1.72h-.25c-.43,0-.81-.09-1.12-.28-.32-.19-.56-.44-.73-.77-.17-.32-.26-.7-.26-1.12v-1.16h-.2c-.31,0-.54.08-.7.24s-.24.39-.24.68v2.4h-2.44Z"/>
    <path class="cls-2" d="M495.83,17.76v-1.72h.33c.14,0,.25-.05.34-.15.09-.1.13-.22.13-.38v-5.55h1.72v5.55c0,.16.04.29.12.38.08.1.2.15.34.15h.33v1.72h-.33c-.55,0-.99-.18-1.33-.54-.34.36-.78.54-1.33.54h-.33Z"/>
    <path class="cls-2" d="M498.95,17.76v-1.72h.93c-.11-.15-.2-.31-.26-.49-.06-.18-.09-.37-.09-.56,0-.44.1-.83.3-1.17.2-.34.48-.6.83-.79.35-.19.76-.28,1.21-.28.35,0,.68.06,1.01.19.33.13.61.31.84.54l-.91,1.35c-.13-.11-.26-.19-.39-.26-.14-.07-.29-.1-.46-.1-.14,0-.27.03-.39.1-.12.07-.21.16-.28.27-.07.11-.11.24-.11.39s.04.27.11.4c.07.12.16.22.28.29.12.07.25.11.4.11h2.07v1.72h-5.08Z"/>
    <path class="cls-2" d="M507.17,8.86v-.49l2.53-.44v.48l-2.53.45ZM507.17,9.56v-.49l2.53-.44v.49l-2.53.44Z"/>
    <path class="cls-2" d="M507.59,17.76v-7.8h1.73v7.8h-1.73Z"/>
    <path class="cls-2" d="M509.97,20.13c-.12,0-.27-.01-.44-.04-.17-.03-.31-.06-.42-.09l.47-1.61c.11.03.23.05.35.05.29,0,.5-.08.63-.24s.21-.39.21-.69v-4.75h1.73s0,3.28,0,3.28h.73v1.72h-.73v.14c0,.42-.09.8-.27,1.13-.18.33-.46.6-.83.8-.38.2-.85.3-1.42.3Z"/>
    <path class="cls-2" d="M513.04,17.76v-1.72h4.62v-.25c0-.28-.07-.52-.18-.71-.11-.19-.28-.34-.5-.44s-.48-.15-.79-.15h-2.57v-1.72l3.09-2.8h2.26l-3.18,2.8h.5c.56,0,1.07.12,1.54.38.47.25.84.6,1.12,1.05.28.45.42.96.42,1.53v.33s.62,0,.62,0v1.72h-6.96Z"/>
    <path class="cls-2" d="M519.8,17.76v-1.72h.33c.14,0,.25-.05.34-.15.09-.1.13-.22.13-.38v-2.75h1.72v2.72c0,.17.05.31.14.41.09.1.21.15.36.15s.27-.05.36-.15c.09-.1.14-.24.14-.41v-2.72h1.73v2.72c0,.17.05.31.14.41s.21.15.36.15.27-.05.36-.15.15-.24.15-.41v-2.72h1.72v2.72c0,.43-.1.81-.3,1.16s-.47.62-.8.82c-.34.2-.71.3-1.12.3-.27,0-.53-.05-.76-.15s-.43-.24-.6-.43c-.17.19-.37.33-.59.43-.23.1-.49.15-.78.15s-.53-.05-.75-.14c-.23-.09-.43-.23-.61-.41-.33.37-.77.55-1.33.55h-.33ZM523.07,12.4c-.24,0-.44-.08-.61-.25-.17-.16-.26-.37-.26-.6s.08-.45.26-.62c.17-.17.38-.25.61-.25s.45.08.62.25c.17.17.25.37.25.62s-.08.44-.25.6c-.17.16-.38.25-.62.25ZM524.09,10.77c-.22,0-.41-.08-.56-.23-.15-.15-.23-.34-.23-.55s.08-.41.23-.56.34-.23.56-.23.4.08.55.23.23.34.23.56-.08.4-.23.55c-.15.15-.34.23-.55.23ZM525.1,12.4c-.24,0-.44-.08-.61-.25-.17-.16-.25-.37-.25-.6s.08-.45.25-.62c.17-.17.37-.25.61-.25s.45.08.62.25c.16.17.25.37.25.62s-.08.44-.25.6c-.17.16-.37.25-.61.25Z"/>
  </g>
  <g>
    <path class="cls-2" d="M496.11,31.34c-.27,0-.52-.07-.75-.2-.23-.13-.41-.31-.55-.54-.13-.23-.2-.48-.2-.75s.07-.52.2-.75c.13-.23.32-.41.55-.55.23-.14.48-.2.75-.2h1.44v1.78c0,.16.04.29.11.39.07.09.17.14.31.14h.18v.7h-.18c-.2,0-.37-.04-.51-.13-.14-.09-.24-.21-.31-.38-.12.16-.26.29-.44.38-.18.09-.38.13-.6.13ZM495.67,28.05c-.11,0-.2-.04-.28-.12s-.12-.17-.12-.28.04-.2.12-.28.17-.12.28-.12c.11,0,.21.04.29.12s.12.17.12.28-.04.2-.12.28-.17.12-.29.12ZM496.11,30.65c.14,0,.27-.03.38-.1s.2-.16.26-.28c.06-.12.1-.26.1-.42v-.8h-.74c-.14,0-.28.04-.4.11-.12.07-.22.17-.29.29s-.11.25-.11.4.04.28.11.4.17.22.29.29c.12.07.26.11.4.11ZM496.74,28.05c-.11,0-.2-.04-.28-.12s-.12-.17-.12-.28.04-.21.12-.28c.08-.08.17-.11.28-.11s.21.04.28.11c.08.08.12.17.12.28s-.04.2-.12.28c-.07.08-.17.12-.28.12Z"/>
    <path class="cls-2" d="M498.03,31.34v-.7h.43c.13,0,.24-.05.31-.14.07-.09.11-.22.11-.39v-1.77h.7s0,1.77,0,1.77c0,.16.04.29.11.39.07.09.18.14.32.14h.44v.7h-.44c-.34,0-.6-.13-.77-.38-.18.26-.43.38-.77.38h-.43ZM498.7,32.59c-.11,0-.2-.04-.28-.12-.08-.08-.12-.17-.12-.28s.04-.2.12-.28.17-.12.28-.12.21.04.28.12.11.17.11.28-.04.2-.12.28c-.08.08-.17.12-.28.12ZM499.77,32.59c-.11,0-.2-.04-.28-.12-.08-.08-.12-.17-.12-.28s.04-.2.12-.28c.08-.08.17-.12.28-.12s.2.04.28.12.12.17.12.28-.04.2-.12.28-.17.12-.28.12Z"/>
    <path class="cls-2" d="M500.32,31.34v-.7h.17c.14,0,.24-.05.31-.14.07-.09.11-.22.11-.39v-1.78h.7v1.78c0,.24-.04.45-.14.64s-.22.33-.39.43-.36.16-.59.16h-.17ZM501.23,28.05c-.12,0-.21-.04-.29-.12s-.12-.18-.12-.29.04-.21.12-.29.18-.12.29-.12.21.04.29.12.12.18.12.29-.04.21-.12.29-.18.12-.29.12Z"/>
    <path class="cls-2" d="M503.45,31.34c-.22,0-.42-.05-.59-.16-.17-.1-.3-.25-.39-.43s-.14-.4-.14-.64v-3.46h.7v3.46c0,.16.03.29.1.39.07.09.17.14.31.14h.15v.7h-.15Z"/>
    <path class="cls-2" d="M503.48,31.34v-.7h.15c.14,0,.24-.05.31-.14.07-.09.11-.22.11-.39v-1.78h.7v1.71c0,.19.05.33.14.44s.21.16.35.16.26-.05.35-.16.14-.25.14-.44v-1.71h.7v1.71c0,.19.05.33.14.44s.21.16.35.16.26-.05.35-.16.14-.25.14-.44v-1.71h.7v1.78c0,.16.04.29.11.39.07.09.18.14.32.14h.15v.7h-.15c-.36,0-.62-.14-.79-.41-.1.14-.21.24-.35.31-.14.07-.3.1-.47.1s-.34-.04-.49-.12c-.14-.08-.26-.19-.35-.33-.09.14-.21.26-.35.33-.14.08-.3.12-.48.12s-.33-.04-.47-.1c-.14-.07-.26-.17-.35-.31-.17.28-.43.41-.79.41h-.15Z"/>
    <path class="cls-2" d="M508.55,31.34v-.7h.17c.13,0,.24-.05.31-.14.07-.09.11-.22.11-.39v-1.78h.7v1.78c0,.24-.05.45-.14.64s-.22.33-.39.43-.37.16-.59.16h-.17ZM509.46,28.05c-.12,0-.21-.04-.29-.12s-.12-.18-.12-.29.04-.21.12-.29.18-.12.29-.12.21.04.29.12.12.18.12.29-.04.21-.12.29-.18.12-.29.12Z"/>
    <path class="cls-2" d="M510.35,31.34v-.7h1.6c.22,0,.38-.06.48-.2.1-.13.15-.32.15-.56v-3.23h.7v3.22c0,.3-.05.56-.17.78-.11.22-.27.39-.47.51-.2.12-.44.18-.71.18h-1.59ZM510.53,32.54v-.28h.25c-.07-.08-.1-.17-.1-.28,0-.14.05-.25.14-.34s.21-.14.35-.14c.08,0,.16.02.23.05.07.03.13.08.18.13l-.19.19c-.06-.06-.13-.09-.22-.09-.06,0-.12.02-.16.06s-.07.1-.07.17c0,.06.02.12.07.17.05.05.1.07.16.07h.46v.28h-1.11ZM510.68,30.35v-3.38h.7v3.38h-.7Z"/>
    <path class="cls-2" d="M514.21,31.34v-4.68h.7v4.68h-.7Z"/>
    <path class="cls-2" d="M519.06,31.34c-.38,0-.71-.07-.98-.22-.28-.15-.48-.36-.62-.63s-.21-.59-.21-.95v-.6h.7v.6c0,.36.09.63.28.82s.46.29.84.29h.8c-.13-.11-.24-.24-.33-.4-.08-.16-.12-.33-.12-.52,0-.25.06-.48.19-.69.12-.21.3-.38.52-.5.22-.12.46-.19.73-.19.29,0,.54.07.77.2.23.14.41.32.54.56.13.24.2.5.2.79v1.44h-3.29ZM520.86,30.65h.8v-.8c0-.14-.04-.28-.11-.4s-.17-.22-.29-.29c-.12-.07-.26-.11-.41-.11s-.28.04-.4.11c-.12.07-.22.17-.29.29s-.11.26-.11.4.04.28.11.4.17.22.29.29c.12.07.26.11.4.11ZM520.86,28.1c-.11,0-.21-.04-.29-.12s-.12-.18-.12-.29.04-.21.12-.29.18-.12.29-.12c.12,0,.21.04.29.12s.12.18.12.29-.04.21-.12.29-.18.12-.29.12Z"/>
    <path class="cls-2" d="M524.2,31.34c-.22,0-.42-.05-.59-.16-.17-.1-.3-.25-.39-.43s-.14-.4-.14-.64v-3.46h.7v3.46c0,.16.03.29.1.39.07.09.17.14.31.14h.15v.7h-.15Z"/>
    <path class="cls-2" d="M524.22,31.34v-.7h3.02v-.35c0-.26-.06-.48-.16-.67-.11-.19-.26-.33-.45-.44-.19-.1-.42-.16-.68-.16h-1.27v-.7l1.88-1.68h.94l-1.92,1.68h.41c.37,0,.69.08.99.24.3.16.53.39.7.68.17.29.26.63.26,1v1.07h-3.71Z"/>
    <path class="cls-2" d="M472.31,38.55v-4.38h.76v1.96l1.63-1.96h.86l-1.47,1.82,1.61,2.56h-.88l-1.2-1.87-.55.61v1.26h-.76Z"/>
    <path class="cls-2" d="M477.29,38.59c-.29,0-.55-.08-.79-.23s-.43-.36-.58-.62c-.14-.26-.21-.54-.21-.85s.07-.59.21-.85c.14-.26.34-.47.58-.62.24-.15.5-.23.79-.23.24,0,.47.06.68.19.21.12.36.29.46.49l.04-.62h.65v3.3h-.65l-.04-.62c-.1.19-.25.35-.46.47-.21.12-.43.19-.68.19ZM477.41,37.88c.18,0,.35-.04.5-.13s.28-.21.36-.36c.09-.15.13-.32.13-.5s-.04-.35-.13-.5-.21-.27-.36-.36c-.15-.09-.32-.13-.5-.13s-.34.04-.49.13c-.15.09-.27.21-.36.36s-.13.32-.13.5.04.34.13.5c.09.15.21.27.36.36s.31.13.49.13Z"/>
    <path class="cls-2" d="M481.31,38.59c-.29,0-.55-.08-.79-.23s-.43-.36-.58-.62c-.14-.26-.22-.54-.22-.85s.07-.59.22-.85.34-.47.58-.62c.24-.15.5-.23.79-.23.24,0,.47.06.68.19.21.12.36.29.46.49l.04-.62h.65v3.3h-.65l-.04-.62c-.1.19-.25.35-.46.47-.21.12-.43.19-.68.19ZM481.43,37.88c.18,0,.35-.04.5-.13s.28-.21.36-.36c.09-.15.13-.32.13-.5s-.04-.35-.13-.5-.21-.27-.36-.36c-.15-.09-.32-.13-.5-.13s-.35.04-.5.13c-.15.09-.27.21-.36.36-.09.15-.13.32-.13.5s.04.34.13.5c.09.15.21.27.36.36.15.09.32.13.5.13Z"/>
    <path class="cls-2" d="M484.79,38.55h-.71v-2.66h-.42v-.64h.42v-.1c0-.32.05-.59.17-.79.11-.2.26-.35.44-.44.18-.09.39-.14.62-.14.18,0,.35.03.5.08l-.19.64s-.03,0-.04,0-.02,0-.04,0c-.05-.01-.11-.02-.17-.02-.19,0-.33.05-.43.16s-.15.28-.15.53v.1h.82v.64h-.82v2.66Z"/>
    <path class="cls-2" d="M487.89,38.55v-4.38h.76v1.82h1.93v-1.82h.76v4.38h-.76v-1.79h-1.93v1.79h-.76Z"/>
    <path class="cls-2" d="M493.45,38.59c-.27,0-.5-.06-.69-.18-.2-.12-.35-.31-.46-.56-.11-.25-.17-.56-.17-.93v-1.68h.71v1.68c0,.22.04.4.11.54s.16.25.28.32c.12.07.25.1.4.1s.28-.04.4-.1c.12-.07.21-.18.28-.32.07-.14.11-.32.11-.54v-1.68h.71v3.3h-.65l-.04-.53c-.1.17-.23.31-.4.42-.17.11-.36.16-.58.16Z"/>
    <path class="cls-2" d="M495.9,38.55v-3.3h.65l.04.5c.08-.18.21-.31.37-.41.16-.1.33-.14.51-.14.24,0,.45.06.61.17.17.12.29.27.37.46.08-.19.2-.34.37-.46s.35-.18.56-.18c.38,0,.68.13.9.39.22.26.33.67.33,1.22v1.74h-.71v-1.74c0-.32-.06-.55-.18-.69-.12-.14-.28-.22-.46-.22s-.33.07-.46.22c-.13.15-.19.38-.19.69v1.74h-.71v-1.74c0-.32-.06-.55-.18-.69-.12-.14-.27-.22-.46-.22-.12,0-.23.03-.32.1s-.17.17-.23.32c-.06.15-.09.33-.09.54v1.68h-.71Z"/>
    <path class="cls-2" d="M502.74,38.59c-.29,0-.55-.08-.79-.23s-.43-.36-.58-.62c-.14-.26-.22-.54-.22-.85s.07-.59.22-.85.34-.47.58-.62c.24-.15.5-.23.79-.23.24,0,.47.06.68.19.21.12.36.29.46.49l.04-.62h.65v3.3h-.65l-.04-.62c-.1.19-.25.35-.46.47-.21.12-.43.19-.68.19ZM502.87,37.88c.18,0,.35-.04.5-.13s.28-.21.36-.36c.09-.15.13-.32.13-.5s-.04-.35-.13-.5-.21-.27-.36-.36c-.15-.09-.32-.13-.5-.13s-.35.04-.5.13c-.15.09-.27.21-.36.36-.09.15-.13.32-.13.5s.04.34.13.5c.09.15.21.27.36.36.15.09.32.13.5.13Z"/>
    <path class="cls-2" d="M505.35,38.55v-3.3h.65l.04.53c.1-.17.23-.31.4-.42s.36-.16.59-.16c.26,0,.49.06.69.18.2.12.35.31.46.56.11.25.17.56.17.93v1.68h-.71v-1.68c0-.22-.04-.4-.11-.54-.07-.14-.16-.25-.28-.32-.12-.07-.25-.1-.4-.1s-.27.03-.39.1c-.12.07-.21.17-.29.32s-.11.33-.11.54v1.68h-.71Z"/>
    <path class="cls-2" d="M509.44,34.94c-.12,0-.22-.04-.3-.13s-.12-.18-.12-.3.04-.22.12-.3.18-.13.3-.13.21.04.3.13.13.19.13.3-.04.22-.13.3-.18.13-.3.13ZM509.07,38.55v-3.3h.71v3.3h-.71Z"/>
    <path class="cls-2" d="M511.93,38.61c-.35,0-.63-.11-.86-.33-.22-.22-.33-.56-.33-1.03v-1.36h-.44v-.64h.46l.1-1.08h.59v1.08h.77v.64h-.77v1.35c0,.22.05.39.15.51.1.12.24.17.43.17.08,0,.16-.01.24-.04l.18.64c-.15.06-.32.1-.52.1Z"/>
    <path class="cls-2" d="M514.24,38.59c-.29,0-.55-.08-.79-.23s-.43-.36-.58-.62c-.14-.26-.22-.54-.22-.85s.07-.59.22-.85.34-.47.58-.62c.24-.15.5-.23.79-.23.24,0,.47.06.68.19.21.12.36.29.46.49l.04-.62h.65v3.3h-.65l-.04-.62c-.1.19-.25.35-.46.47-.21.12-.43.19-.68.19ZM514.37,37.88c.18,0,.35-.04.5-.13s.28-.21.36-.36c.09-.15.13-.32.13-.5s-.04-.35-.13-.5-.21-.27-.36-.36c-.15-.09-.32-.13-.5-.13s-.35.04-.5.13c-.15.09-.27.21-.36.36-.09.15-.13.32-.13.5s.04.34.13.5c.09.15.21.27.36.36.15.09.32.13.5.13Z"/>
    <path class="cls-2" d="M516.86,38.55v-3.3h.65l.05.5c.1-.17.23-.3.4-.39.17-.09.38-.14.61-.13.1,0,.19,0,.28.02l-.14.68s-.07,0-.12,0c-.29,0-.54.09-.73.27-.19.18-.29.48-.29.9v1.45h-.71Z"/>
    <path class="cls-2" d="M519.73,34.94c-.12,0-.21-.04-.3-.13s-.13-.18-.13-.3.04-.22.13-.3.18-.13.3-.13.22.04.3.13.12.19.12.3-.04.22-.12.3-.18.13-.3.13ZM519.37,38.55v-3.3h.71v3.3h-.71Z"/>
    <path class="cls-2" d="M522.27,38.59c-.29,0-.55-.08-.79-.23s-.43-.36-.58-.62c-.14-.26-.21-.54-.21-.85s.07-.59.21-.85c.14-.26.34-.47.58-.62.24-.15.5-.23.79-.23.24,0,.47.06.68.19.21.12.36.29.46.49l.04-.62h.65v3.3h-.65l-.04-.62c-.1.19-.25.35-.46.47-.21.12-.43.19-.68.19ZM522.39,37.88c.18,0,.35-.04.5-.13s.28-.21.36-.36c.09-.15.13-.32.13-.5s-.04-.35-.13-.5-.21-.27-.36-.36c-.15-.09-.32-.13-.5-.13s-.34.04-.49.13c-.15.09-.27.21-.36.36s-.13.32-.13.5.04.34.13.5c.09.15.21.27.36.36s.31.13.49.13Z"/>
    <path class="cls-2" d="M524.88,38.55v-3.3h.65l.04.53c.1-.17.23-.31.4-.42s.36-.16.59-.16c.26,0,.49.06.69.18.2.12.35.31.46.56s.17.56.17.93v1.68h-.71v-1.68c0-.22-.04-.4-.1-.54-.07-.14-.16-.25-.28-.32-.12-.07-.25-.1-.4-.1s-.28.03-.39.1c-.12.07-.21.17-.29.32s-.11.33-.11.54v1.68h-.71Z"/>
  </g>
  <g>
    <path class="cls-2" d="M414.09,29.19c-.39,0-.71-.07-.97-.21-.26-.14-.46-.34-.58-.61-.13-.27-.19-.6-.19-.98v-.6h.37v.6c0,.48.11.84.34,1.08.22.24.57.36,1.05.36h.96c-.2-.12-.35-.29-.47-.49s-.18-.43-.18-.68c0-.26.07-.51.2-.73s.31-.4.54-.53c.23-.13.47-.19.75-.19s.53.07.76.2c.23.13.41.32.54.55s.2.49.2.77v1.12h.66v.37h-3.95ZM415.87,28.82h1.13v-1.13c0-.2-.05-.39-.15-.57-.1-.18-.24-.31-.41-.41-.17-.1-.37-.15-.57-.15s-.39.05-.57.15-.31.24-.41.41c-.1.18-.15.37-.15.57s.05.39.15.57c.1.18.24.31.41.41.17.1.36.15.57.15ZM415.87,25.81c-.07,0-.13-.03-.19-.08-.05-.05-.08-.12-.08-.19s.03-.14.08-.19c.05-.05.11-.08.19-.08.08,0,.14.03.19.08.05.05.08.12.08.19,0,.08-.03.14-.08.19-.05.05-.12.08-.19.08Z"/>
    <path class="cls-2" d="M417.91,29.19v-.37h.29c.2,0,.34-.06.44-.19s.15-.31.15-.54v-1.9h.37v1.9c0,.22-.04.42-.11.58-.08.16-.19.29-.33.38-.14.09-.31.13-.51.13h-.29ZM418.5,25.81c-.07,0-.13-.03-.18-.08-.05-.05-.08-.11-.08-.18,0-.08.03-.14.08-.19.05-.05.11-.07.18-.07.08,0,.14.02.19.07.05.05.08.11.08.19,0,.07-.03.13-.08.18-.05.05-.12.08-.19.08ZM419.43,25.81c-.07,0-.13-.03-.19-.08-.05-.05-.08-.11-.08-.18,0-.08.03-.14.08-.19.05-.05.11-.07.19-.07s.13.02.19.07c.05.05.08.11.08.19,0,.07-.03.13-.08.18-.05.05-.11.08-.19.08Z"/>
    <path class="cls-2" d="M421.12,29.19c-.2,0-.37-.04-.51-.13-.14-.09-.24-.22-.31-.38-.07-.16-.11-.36-.11-.58v-3.58h.37v3.58c0,.23.04.41.13.54s.23.19.42.19h.15v.37h-.15Z"/>
    <path class="cls-2" d="M421.15,29.19v-.37h.81c-.11-.08-.2-.18-.26-.31-.06-.13-.1-.27-.1-.42,0-.17.04-.33.12-.48s.19-.28.32-.38.29-.16.46-.18c.1-.27.27-.49.5-.65s.5-.25.79-.25c.26,0,.5.06.71.19s.37.31.49.53.18.48.18.76v1.55h-4.02ZM422.65,28.82c.13,0,.25-.03.37-.1.11-.07.2-.16.27-.27.07-.11.1-.24.1-.37,0-.13-.03-.25-.1-.37-.07-.12-.16-.21-.27-.27-.12-.07-.24-.1-.37-.1-.14,0-.26.03-.37.1-.11.07-.2.16-.27.27-.07.11-.1.24-.1.37s.03.26.1.37c.07.11.16.2.27.27.11.07.24.1.37.1ZM423.33,28.82h1.47v-1.19c0-.22-.04-.41-.13-.58-.09-.17-.21-.31-.36-.4-.15-.1-.33-.14-.52-.14-.21,0-.4.06-.56.17-.17.11-.29.26-.37.44.15.02.29.08.42.17.13.09.23.21.3.35.07.14.11.29.11.45,0,.15-.03.29-.1.42-.07.13-.15.24-.27.32Z"/>
    <path class="cls-2" d="M388.13,36.39c-.39,0-.72-.07-.99-.21-.27-.14-.47-.34-.61-.61s-.2-.6-.2-.98v-.6h.37v.6c0,.48.12.83.36,1.07.24.24.6.36,1.07.36h.65v-.98c0-.38.06-.69.19-.94.12-.24.31-.43.55-.54.25-.12.55-.18.92-.18h.55v1.91c0,.23.04.41.13.54s.23.19.41.19h.15v.37h-.15c-.2,0-.36-.04-.5-.13s-.24-.21-.31-.38c-.07-.16-.1-.36-.1-.58v-1.55h-.19c-.45,0-.78.1-.98.31s-.31.53-.31.99v1.34h-1.01ZM387.9,37.51c-.07,0-.13-.03-.19-.08-.05-.05-.08-.11-.08-.19s.03-.13.08-.19c.05-.05.11-.08.19-.08s.13.03.19.08c.05.05.08.11.08.19,0,.07-.03.13-.08.18-.05.05-.12.08-.18.08ZM388.84,37.51c-.07,0-.13-.03-.18-.08-.05-.05-.08-.11-.08-.19s.03-.13.08-.19c.05-.05.11-.08.18-.08s.13.03.19.08c.05.05.08.11.08.19,0,.07-.03.13-.08.18-.05.05-.11.08-.19.08Z"/>
    <path class="cls-2" d="M391.57,36.39v-.37h.16c.19,0,.33-.06.42-.19.09-.13.14-.31.14-.54v-1.9h.37v1.9c0,.22-.03.42-.1.58s-.17.29-.32.38c-.14.09-.31.13-.5.13h-.16ZM392.44,33.01c-.07,0-.13-.03-.19-.08-.05-.05-.08-.12-.08-.19s.03-.14.08-.19c.05-.05.11-.08.19-.08s.14.03.19.08c.05.05.08.12.08.19s-.03.13-.08.19c-.05.05-.12.08-.19.08Z"/>
    <path class="cls-2" d="M394.89,37.73c-.26,0-.5-.05-.72-.15s-.4-.25-.54-.44l.26-.24c.11.14.25.26.43.34.18.08.37.13.57.13.32,0,.57-.09.77-.28.19-.19.3-.42.33-.7h-1.04c-.31,0-.58-.06-.83-.19-.24-.13-.44-.31-.57-.54s-.21-.49-.21-.78c0-.27.07-.52.2-.76.13-.23.32-.42.55-.55.23-.13.49-.2.76-.2.29,0,.55.07.78.21.23.14.41.33.53.58.13.25.19.53.19.84v1.24c0,.27-.06.52-.17.75-.12.23-.29.41-.51.54-.22.13-.48.2-.78.2ZM394.94,36.02h1.04v-1.06c0-.24-.05-.45-.14-.64s-.23-.33-.4-.44c-.17-.1-.37-.16-.6-.16-.21,0-.41.05-.58.15-.17.1-.31.24-.41.41-.1.18-.15.37-.15.58,0,.23.05.43.16.6.1.17.25.31.44.41.19.1.41.14.65.14Z"/>
    <path class="cls-2" d="M396.9,37.73c-.06,0-.12,0-.19-.02-.07-.01-.13-.03-.19-.05l.1-.34c.08.03.17.05.26.05.24,0,.41-.07.51-.22.1-.14.15-.35.15-.61v-3.15h.37v2.63h.76v.37h-.76v.2c0,.23-.03.43-.1.59s-.18.3-.33.4c-.15.1-.35.14-.59.14Z"/>
    <path class="cls-2" d="M398.56,36.39v-.37h.32c.19,0,.33-.06.43-.19.09-.13.14-.31.14-.54v-1.9h.36v1.9c0,.23.05.41.14.54s.23.19.43.19h.32v.37h-.32c-.35,0-.6-.15-.74-.44-.15.3-.4.44-.74.44h-.32ZM399.18,33.01c-.07,0-.13-.03-.19-.08-.05-.05-.08-.11-.08-.18,0-.08.03-.14.08-.19.05-.05.11-.07.19-.07s.13.02.19.07c.05.05.08.11.08.19,0,.07-.03.13-.08.18-.05.05-.11.08-.19.08ZM400.11,33.01c-.07,0-.13-.03-.19-.08-.05-.05-.08-.11-.08-.18,0-.08.03-.14.08-.19.05-.05.11-.07.19-.07s.13.02.19.07c.05.05.08.11.08.19,0,.07-.03.13-.08.18-.05.05-.11.08-.19.08Z"/>
    <path class="cls-2" d="M400.58,36.39v-.37h3.26v-.54c0-.34-.08-.65-.22-.91-.14-.26-.34-.46-.6-.61s-.55-.22-.88-.22h-1.01v-.37l1.91-1.68h.51l-1.93,1.68h.53c.39,0,.74.09,1.05.26.31.17.55.42.73.73s.26.68.26,1.09v.55h.66v.37h-4.28Z"/>
    <path class="cls-2" d="M404.74,36.39v-.37h.16c.19,0,.33-.06.42-.19.09-.13.14-.31.14-.54v-3.58h.37v3.58c0,.22-.03.42-.1.58s-.17.29-.32.38c-.14.09-.31.13-.5.13h-.16Z"/>
    <path class="cls-2" d="M406.66,36.39v-.37h1.7c.23,0,.4-.07.51-.21.11-.14.17-.34.17-.6v-3.5h.37v3.5c0,.24-.04.46-.13.63-.08.18-.2.31-.36.41-.16.09-.34.14-.55.14h-1.7ZM406.83,37.56v-.19h.26c-.09-.09-.14-.2-.14-.32s.05-.24.14-.33.21-.13.34-.13c.08,0,.15.02.21.05.07.03.12.07.17.13l-.14.13c-.06-.07-.14-.1-.24-.1-.08,0-.15.03-.21.08-.06.05-.09.12-.09.2s.03.16.09.22c.06.06.13.09.21.09h.44v.19h-1.05ZM407.09,35.7v-3.68h.37v3.68h-.37Z"/>
    <path class="cls-2" d="M410.51,36.39v-4.68h.37v4.68h-.37Z"/>
    <path class="cls-2" d="M413.36,36.39v-.37h2.2v-.98c0-.26-.05-.48-.14-.67s-.23-.34-.4-.45-.37-.16-.6-.16c-.11,0-.22.01-.32.04-.1.03-.2.07-.29.13,0,0,0,0,0,0h0s-.17-.31-.17-.31c.24-.16.51-.23.8-.23s.55.07.78.21c.23.14.41.33.53.58s.19.54.19.85v.98h.65v.37h-3.22Z"/>
    <path class="cls-2" d="M416.46,36.39v-.37h.29c.2,0,.34-.06.44-.19s.15-.31.15-.54v-1.9h.37v1.9c0,.22-.04.42-.11.58-.08.16-.19.29-.33.38-.14.09-.31.13-.51.13h-.29ZM417.03,37.51c-.07,0-.13-.03-.18-.08-.05-.05-.08-.11-.08-.19s.03-.13.08-.19c.05-.05.11-.08.18-.08s.13.03.19.08c.05.05.08.11.08.19,0,.07-.03.13-.08.18-.05.05-.11.08-.19.08ZM417.97,37.51c-.07,0-.13-.03-.19-.08-.05-.05-.08-.11-.08-.19s.03-.13.08-.19c.05-.05.11-.08.19-.08.07,0,.13.03.18.08.05.05.08.11.08.19,0,.07-.03.13-.08.18-.05.05-.12.08-.18.08Z"/>
    <path class="cls-2" d="M419.05,37.73c-.06,0-.12,0-.19-.02-.07-.01-.13-.03-.19-.05l.1-.34c.08.03.17.05.26.05.24,0,.41-.07.51-.22.1-.14.15-.35.15-.61v-3.15h.37v2.63h.76v.37h-.76v.2c0,.23-.03.43-.1.59s-.18.3-.33.4c-.15.1-.35.14-.59.14Z"/>
    <path class="cls-2" d="M420.72,36.39v-.37h.16c.19,0,.33-.06.42-.19.09-.13.14-.31.14-.54v-1.9h.37v1.9c0,.23.05.41.14.54s.23.19.42.19h.16v.37h-.16c-.35,0-.59-.15-.74-.44-.15.3-.4.44-.74.44h-.16ZM421.62,37.47c-.07,0-.13-.03-.19-.08-.05-.05-.08-.11-.08-.19s.03-.14.08-.19c.05-.05.12-.08.19-.08.08,0,.14.03.19.08.05.05.08.12.08.19s-.03.13-.08.19c-.05.05-.12.08-.19.08Z"/>
    <path class="cls-2" d="M422.4,36.39v-.37h.16c.19,0,.33-.06.42-.19.09-.13.14-.31.14-.54v-3.58h.37v3.58c0,.22-.03.42-.1.58s-.17.29-.32.38c-.14.09-.31.13-.5.13h-.16Z"/>
    <path class="cls-2" d="M424.59,36.39v-4.68h.37v4.68h-.37Z"/>
  </g>
  <g>
    <path class="cls-2" d="M354.17,29.19v-4h-1.43v-.38h3.24v.38h-1.42v4h-.39Z"/>
    <path class="cls-2" d="M358.03,29.23c-.32,0-.61-.08-.87-.23s-.48-.36-.63-.62c-.15-.26-.23-.54-.23-.85s.08-.59.23-.84c.15-.26.35-.46.61-.61.25-.15.53-.23.83-.23.32,0,.6.07.85.23.25.15.45.35.59.61.14.26.22.54.22.85,0,.06,0,.13-.01.23h-2.92c.03.2.11.39.24.56.13.17.29.31.48.4.19.1.4.14.62.14s.43-.05.62-.14c.19-.09.35-.22.47-.39l.31.19c-.16.21-.36.38-.61.51s-.51.19-.8.19ZM359.24,27.44c0-.22-.06-.43-.17-.62s-.26-.34-.46-.45-.41-.17-.65-.17-.44.06-.63.17c-.19.11-.35.26-.46.45-.12.19-.18.4-.18.62h2.56Z"/>
    <path class="cls-2" d="M360.33,29.19v-4.68h.37v4.68h-.37Z"/>
    <path class="cls-2" d="M363.19,29.23c-.32,0-.61-.08-.87-.23s-.48-.36-.63-.62c-.15-.26-.23-.54-.23-.85s.08-.59.23-.84c.15-.26.35-.46.61-.61.25-.15.53-.23.83-.23.32,0,.6.07.85.23.25.15.45.35.59.61.14.26.22.54.22.85,0,.06,0,.13-.01.23h-2.92c.03.2.11.39.24.56.13.17.29.31.48.4.19.1.4.14.62.14s.43-.05.62-.14c.19-.09.35-.22.47-.39l.31.19c-.16.21-.36.38-.61.51s-.51.19-.8.19ZM364.41,27.44c0-.22-.06-.43-.17-.62s-.26-.34-.46-.45-.41-.17-.65-.17-.44.06-.63.17c-.19.11-.35.26-.46.45-.12.19-.18.4-.18.62h2.56Z"/>
    <path class="cls-2" d="M365.44,29.21c-.07,0-.13-.03-.19-.08-.05-.05-.08-.12-.08-.19,0-.08.03-.14.08-.19.05-.05.12-.08.19-.08s.13.03.19.08c.05.05.08.12.08.19s-.03.13-.08.19-.11.08-.19.08Z"/>
    <path class="cls-2" d="M369.04,28.28v-1.12h-1.12v-.32h1.12v-1.12h.32v1.12h1.12v.32h-1.12v1.12h-.32Z"/>
    <path class="cls-2" d="M373.01,27.79c-.31.09-.61.08-.91-.03-.3-.11-.54-.3-.73-.56-.19-.26-.29-.56-.29-.89,0-.28.07-.55.21-.79.14-.24.33-.43.57-.57.24-.14.5-.21.79-.21s.54.07.78.21c.24.14.43.33.57.57.14.24.21.5.21.79,0,.19-.03.38-.1.55-.07.18-.16.34-.29.47l-1.55,1.85h-.47l1.19-1.4ZM372.66,27.5c.22,0,.42-.05.6-.16.18-.11.33-.25.43-.43.11-.18.16-.38.16-.6s-.05-.41-.16-.59c-.11-.18-.25-.33-.43-.44-.18-.11-.38-.16-.6-.16s-.42.05-.61.16c-.18.11-.33.25-.44.44-.11.18-.16.38-.16.6s.05.42.16.6c.11.18.25.33.44.43.18.11.39.16.61.16Z"/>
    <path class="cls-2" d="M375.37,29.19l1.88-4.03h-2.62v-.35h3.05v.28l-1.9,4.1h-.41Z"/>
    <path class="cls-2" d="M379.36,29.27c-.35,0-.66-.08-.93-.24-.27-.16-.47-.37-.6-.62l.34-.14c.08.18.24.33.46.45.22.12.47.18.73.18.22,0,.42-.04.59-.12.17-.08.31-.19.41-.34s.15-.31.15-.5-.05-.35-.16-.49c-.11-.14-.25-.25-.43-.33-.18-.08-.37-.11-.58-.11h-.2v-.35h.2c.18,0,.35-.03.5-.1.15-.07.27-.16.36-.28.09-.12.14-.25.14-.4,0-.16-.04-.29-.13-.42-.09-.12-.21-.22-.36-.28-.15-.07-.32-.1-.51-.1s-.38.04-.54.12c-.17.08-.29.18-.37.31l-.34-.14c.11-.19.28-.35.51-.47.23-.12.47-.18.74-.18s.48.05.69.14c.21.09.38.22.5.4s.18.37.18.61c0,.22-.06.41-.19.58s-.29.3-.5.39c.26.1.47.24.62.44.16.2.23.43.23.7s-.07.48-.2.68c-.13.2-.31.35-.54.46-.23.11-.48.16-.77.16Z"/>
    <path class="cls-2" d="M383.68,29.19v-4.03h-.6v-.35h.97v4.38h-.37Z"/>
    <path class="cls-2" d="M385.6,29.19l1.88-4.03h-2.62v-.35h3.05v.28l-1.9,4.1h-.41Z"/>
    <path class="cls-2" d="M389.59,29.27c-.35,0-.66-.08-.93-.24-.27-.16-.47-.37-.6-.62l.34-.14c.08.18.24.33.46.45.22.12.47.18.73.18.22,0,.42-.04.59-.12.17-.08.31-.19.41-.34s.15-.31.15-.5-.05-.35-.16-.49c-.11-.14-.25-.25-.43-.33-.18-.08-.37-.11-.58-.11h-.2v-.35h.2c.18,0,.35-.03.5-.1.15-.07.27-.16.36-.28.09-.12.14-.25.14-.4,0-.16-.04-.29-.13-.42-.09-.12-.21-.22-.36-.28-.15-.07-.32-.1-.51-.1s-.38.04-.54.12c-.17.08-.29.18-.37.31l-.34-.14c.11-.19.28-.35.51-.47.23-.12.47-.18.74-.18s.48.05.69.14c.21.09.38.22.5.4s.18.37.18.61c0,.22-.06.41-.19.58s-.29.3-.5.39c.26.1.47.24.62.44.16.2.23.43.23.7s-.07.48-.2.68c-.13.2-.31.35-.54.46-.23.11-.48.16-.77.16Z"/>
    <path class="cls-2" d="M393.16,29.27c-.35,0-.66-.08-.93-.24-.27-.16-.47-.37-.6-.62l.34-.14c.08.18.24.33.46.45.22.12.47.18.73.18.22,0,.42-.04.59-.12.17-.08.31-.19.41-.34s.15-.31.15-.5-.05-.35-.16-.49c-.11-.14-.25-.25-.43-.33-.18-.08-.37-.11-.58-.11h-.2v-.35h.2c.18,0,.35-.03.5-.1.15-.07.27-.16.36-.28.09-.12.14-.25.14-.4,0-.16-.04-.29-.13-.42-.09-.12-.21-.22-.36-.28-.15-.07-.32-.1-.51-.1s-.38.04-.54.12c-.17.08-.29.18-.37.31l-.34-.14c.11-.19.28-.35.51-.47.23-.12.47-.18.74-.18s.48.05.69.14c.21.09.38.22.5.4s.18.37.18.61c0,.22-.06.41-.19.58s-.29.3-.5.39c.26.1.47.24.62.44.16.2.23.43.23.7s-.07.48-.2.68c-.13.2-.31.35-.54.46-.23.11-.48.16-.77.16Z"/>
    <path class="cls-2" d="M396.72,29.27c-.35,0-.66-.08-.93-.24-.27-.16-.47-.37-.6-.62l.34-.14c.08.18.24.33.46.45.22.12.47.18.73.18.22,0,.42-.04.59-.12.17-.08.31-.19.41-.34s.15-.31.15-.5-.05-.35-.16-.49c-.11-.14-.25-.25-.43-.33-.18-.08-.37-.11-.58-.11h-.2v-.35h.2c.18,0,.35-.03.5-.1.15-.07.27-.16.36-.28.09-.12.14-.25.14-.4,0-.16-.04-.29-.13-.42-.09-.12-.21-.22-.36-.28-.15-.07-.32-.1-.51-.1s-.38.04-.54.12c-.17.08-.29.18-.37.31l-.34-.14c.11-.19.28-.35.51-.47.23-.12.47-.18.74-.18s.48.05.69.14c.21.09.38.22.5.4s.18.37.18.61c0,.22-.06.41-.19.58s-.29.3-.5.39c.26.1.47.24.62.44.16.2.23.43.23.7s-.07.48-.2.68c-.13.2-.31.35-.54.46-.23.11-.48.16-.77.16Z"/>
    <path class="cls-2" d="M400.59,29.27c-.33,0-.63-.09-.88-.28-.26-.18-.46-.45-.6-.79-.15-.34-.22-.74-.22-1.2s.07-.87.22-1.21c.15-.34.35-.6.6-.78.26-.18.55-.27.88-.27s.62.09.88.27c.26.18.46.44.6.78.14.34.22.74.22,1.21s-.07.86-.22,1.2c-.14.34-.34.6-.6.79-.26.18-.55.28-.87.28ZM400.59,28.9c.25,0,.47-.07.67-.21s.36-.36.47-.65.18-.64.18-1.06-.06-.74-.18-1.02c-.12-.28-.28-.49-.48-.63s-.42-.21-.67-.21-.47.07-.67.21c-.2.14-.36.35-.48.63-.12.28-.18.62-.18,1.02s.06.77.18,1.06.28.5.48.65c.2.14.43.21.67.21Z"/>
    <path class="cls-2" d="M404.8,27.79c-.31.09-.61.08-.91-.03-.3-.11-.54-.3-.73-.56-.19-.26-.29-.56-.29-.89,0-.28.07-.55.21-.79.14-.24.33-.43.57-.57.24-.14.5-.21.79-.21s.54.07.78.21c.24.14.43.33.57.57.14.24.21.5.21.79,0,.19-.03.38-.1.55-.07.18-.16.34-.29.47l-1.55,1.85h-.47l1.19-1.4ZM404.46,27.5c.22,0,.42-.05.6-.16.18-.11.33-.25.43-.43.11-.18.16-.38.16-.6s-.05-.41-.16-.59c-.11-.18-.25-.33-.43-.44-.18-.11-.38-.16-.6-.16s-.42.05-.61.16c-.18.11-.33.25-.44.44-.11.18-.16.38-.16.6s.05.42.16.6c.11.18.25.33.44.43.18.11.39.16.61.16Z"/>
    <path class="cls-2" d="M408.33,29.27c-.33,0-.63-.09-.88-.28-.26-.18-.46-.45-.6-.79-.15-.34-.22-.74-.22-1.2s.07-.87.22-1.21c.15-.34.35-.6.6-.78.26-.18.55-.27.88-.27s.62.09.88.27c.26.18.46.44.6.78.14.34.22.74.22,1.21s-.07.86-.22,1.2c-.14.34-.34.6-.6.79-.26.18-.55.28-.87.28ZM408.33,28.9c.25,0,.47-.07.67-.21s.36-.36.47-.65.18-.64.18-1.06-.06-.74-.18-1.02c-.12-.28-.28-.49-.48-.63s-.42-.21-.67-.21-.47.07-.67.21c-.2.14-.36.35-.48.63-.12.28-.18.62-.18,1.02s.06.77.18,1.06.28.5.48.65c.2.14.43.21.67.21Z"/>
  </g>
  <g>
    <path class="cls-2" d="M297.15,29.19c-.39,0-.71-.06-.97-.19-.26-.13-.46-.33-.58-.58-.13-.26-.2-.58-.2-.97v-.65h.37v.65c0,.48.11.83.34,1.05.22.22.57.34,1.05.34h.98c.22,0,.38-.07.49-.2.11-.14.16-.33.16-.57v-1.86h.37v1.86c0,.23-.04.43-.12.61-.08.17-.2.3-.35.4-.15.09-.33.14-.54.14h-.98ZM297.27,30.17c-.07,0-.13-.03-.19-.08-.05-.05-.08-.12-.08-.19s.03-.14.08-.19c.05-.05.11-.08.19-.08.08,0,.14.03.19.08.05.05.08.12.08.19s-.03.13-.08.19c-.05.05-.12.08-.19.08Z"/>
    <path class="cls-2" d="M300.08,29.21c-.07,0-.13-.03-.19-.08-.05-.05-.08-.12-.08-.19,0-.08.03-.14.08-.19.05-.05.12-.08.19-.08s.13.03.19.08c.05.05.08.12.08.19s-.03.13-.08.19-.11.08-.19.08Z"/>
    <path class="cls-2" d="M302.35,30.53c-.29,0-.54-.07-.76-.2-.22-.14-.39-.34-.51-.6-.12-.27-.18-.58-.18-.96v-1.97h.37v1.97c0,.46.1.8.29,1.04.19.24.46.36.8.36s.61-.12.8-.36c.19-.24.29-.59.29-1.04v-2.57h.37v1.09c.26-.33.53-.59.81-.79.28-.2.58-.3.9-.3.28,0,.52.07.74.2.21.13.38.32.49.55.12.24.17.51.17.81v.34c0,.34-.08.61-.25.81s-.4.29-.7.29h-2.2c-.04.29-.13.53-.26.73-.13.2-.29.35-.49.45s-.43.16-.68.16ZM305.98,28.82c.19,0,.34-.06.43-.19.1-.13.15-.31.15-.54v-.34c0-.24-.04-.44-.13-.62s-.21-.32-.37-.42-.35-.15-.56-.15c-.3,0-.58.11-.85.33-.27.22-.55.51-.83.88v1.06h2.17Z"/>
  </g>
  <g>
    <path class="cls-2" d="M193.49,30.53c-.29,0-.56-.07-.79-.22-.24-.15-.42-.35-.56-.62s-.21-.57-.21-.93v-1.97h.37v1.97c0,.29.05.54.16.75.11.21.25.37.43.48.18.11.38.17.61.17s.43-.06.61-.17c.18-.11.33-.27.43-.48.11-.21.16-.46.16-.75v-2.57h.37v1.9c0,.23.04.41.13.54.09.13.23.19.42.19h.15v.37h-.15c-.25,0-.44-.09-.56-.26-.02.32-.11.6-.25.84s-.33.43-.56.56c-.23.13-.48.19-.75.19ZM193.49,25.89c-.07,0-.13-.03-.19-.08-.05-.05-.08-.12-.08-.19s.03-.13.08-.19c.05-.05.11-.08.19-.08s.13.03.19.08c.05.05.08.11.08.19s-.03.13-.08.19c-.05.05-.12.08-.19.08Z"/>
    <path class="cls-2" d="M195.65,29.19v-.37h.29c.2,0,.34-.06.44-.19s.15-.31.15-.54v-1.9h.37v1.9c0,.22-.04.42-.11.58-.08.16-.19.29-.33.38-.14.09-.31.13-.51.13h-.29ZM196.22,30.31c-.07,0-.13-.03-.18-.08-.05-.05-.08-.11-.08-.19s.03-.13.08-.19c.05-.05.11-.08.18-.08s.13.03.19.08c.05.05.08.11.08.19,0,.07-.03.13-.08.18-.05.05-.11.08-.19.08ZM197.16,30.31c-.07,0-.13-.03-.19-.08-.05-.05-.08-.11-.08-.19s.03-.13.08-.19c.05-.05.11-.08.19-.08.07,0,.13.03.18.08.05.05.08.11.08.19,0,.07-.03.13-.08.18-.05.05-.12.08-.18.08Z"/>
    <path class="cls-2" d="M198.25,30.53c-.06,0-.12,0-.19-.02-.07-.01-.13-.03-.19-.05l.1-.34c.08.03.17.05.26.05.24,0,.41-.07.51-.22.1-.14.15-.35.15-.61v-3.15h.37v2.63h.76v.37h-.76v.2c0,.23-.03.43-.1.59s-.18.3-.33.4c-.15.1-.35.14-.59.14Z"/>
    <path class="cls-2" d="M199.91,29.19v-.37h3.43v-.54c0-.34-.08-.65-.22-.91-.14-.26-.34-.46-.6-.61s-.55-.22-.88-.22h-1.16v-.37h1.18c.4,0,.75.09,1.06.26.31.17.55.42.73.73s.26.68.27,1.09v.55h.56v.37h-4.35Z"/>
    <path class="cls-2" d="M204.14,29.19v-.37h.16c.19,0,.33-.06.42-.19.09-.13.14-.31.14-.54v-1.9h.37v1.9c0,.23.05.41.14.54s.23.19.42.19h.16v.37h-.16c-.35,0-.59-.15-.74-.44-.15.3-.4.44-.74.44h-.16ZM205.04,30.27c-.07,0-.13-.03-.19-.08-.05-.05-.08-.11-.08-.19s.03-.14.08-.19c.05-.05.12-.08.19-.08.08,0,.14.03.19.08.05.05.08.12.08.19s-.03.13-.08.19c-.05.05-.12.08-.19.08Z"/>
    <path class="cls-2" d="M205.82,29.19v-.37h.16c.19,0,.33-.06.42-.19.09-.13.14-.31.14-.54v-3.58h.37v3.58c0,.22-.03.42-.1.58s-.17.29-.32.38c-.14.09-.31.13-.5.13h-.16Z"/>
    <path class="cls-2" d="M208.01,29.19v-4.68h.37v4.68h-.37Z"/>
    <path class="cls-2" d="M212.41,29.19c-.27,0-.52-.07-.75-.2-.23-.13-.41-.32-.55-.55-.13-.23-.2-.48-.2-.75s.07-.52.2-.75c.13-.23.32-.41.55-.55.23-.13.48-.2.75-.2h1.4v1.9c0,.23.05.41.14.54s.23.19.43.19h.16v.37h-.16c-.22,0-.4-.06-.53-.17s-.23-.27-.28-.48c-.12.2-.28.36-.48.48-.2.11-.43.17-.67.17ZM212.41,28.82c.19,0,.37-.04.53-.13.16-.09.28-.22.37-.4.09-.17.14-.38.14-.6v-1.13h-1.03c-.2,0-.39.05-.57.15s-.31.24-.41.41c-.1.17-.15.36-.15.57s.05.39.15.57c.1.17.24.31.41.41s.36.15.57.15ZM212,25.81c-.07,0-.13-.03-.18-.08-.05-.05-.08-.11-.08-.18,0-.08.03-.14.08-.19.05-.05.11-.07.18-.07.08,0,.14.02.19.07.05.05.08.11.08.19,0,.07-.03.13-.08.18-.05.05-.12.08-.19.08ZM212.94,25.81c-.07,0-.13-.03-.19-.08-.05-.05-.08-.11-.08-.18,0-.08.03-.14.08-.19.05-.05.11-.07.19-.07s.13.02.19.07c.05.05.08.11.08.19,0,.07-.03.13-.08.18-.05.05-.11.08-.19.08Z"/>
    <path class="cls-2" d="M214.41,29.19v-.37h3.26v-.54c0-.34-.08-.65-.22-.91-.14-.26-.34-.46-.6-.61s-.55-.22-.88-.22h-1.01v-.37l1.91-1.68h.51l-1.93,1.68h.53c.39,0,.74.09,1.05.26.31.17.55.42.73.73s.26.68.26,1.09v.55h.66v.37h-4.28Z"/>
    <path class="cls-2" d="M218.57,29.19v-.37h.16c.19,0,.33-.06.42-.19.09-.13.14-.31.14-.54v-3.58h.37v3.58c0,.23.05.41.14.54s.23.19.42.19h.16v.37h-.16c-.35,0-.59-.15-.74-.44-.15.3-.4.44-.74.44h-.16Z"/>
    <path class="cls-2" d="M220.26,29.19v-.37h1.09c-.19-.12-.35-.27-.46-.47-.12-.2-.17-.42-.17-.66,0-.27.07-.52.2-.75s.32-.41.55-.55c.23-.13.48-.2.75-.2s.52.07.75.2c.23.13.41.32.55.55.13.23.2.48.2.75v.56c0,.18.05.32.14.42.09.1.22.15.38.15h.16v.37h-.16c-.22,0-.4-.06-.53-.18-.14-.12-.22-.29-.25-.5-.13.21-.31.37-.53.5-.22.12-.46.19-.71.19h-1.95ZM222.21,28.82c.21,0,.4-.05.57-.15s.31-.24.41-.41c.1-.17.15-.36.15-.57s-.05-.39-.15-.57c-.1-.17-.24-.31-.41-.41s-.36-.15-.57-.15-.39.05-.57.15-.31.24-.41.41c-.1.17-.15.36-.15.57s.05.39.15.57c.1.17.24.31.41.41s.36.15.57.15Z"/>
    <path class="cls-2" d="M224.27,29.19v-.37h1.09c-.19-.12-.35-.27-.46-.47-.12-.2-.17-.42-.17-.66,0-.27.07-.52.2-.75s.32-.41.55-.55c.23-.13.48-.2.75-.2s.52.07.75.2c.23.13.41.32.55.55.13.23.2.48.2.75s-.07.52-.2.75c-.13.23-.32.41-.55.55-.23.13-.48.2-.75.2h-1.95ZM226.22,28.82c.21,0,.4-.05.57-.15s.31-.24.41-.41c.1-.17.15-.36.15-.57s-.05-.39-.15-.57c-.1-.17-.24-.31-.41-.41s-.36-.15-.57-.15-.39.05-.57.15-.31.24-.41.41c-.1.17-.15.36-.15.57s.05.39.15.57c.1.17.24.31.41.41s.36.15.57.15Z"/>
    <path class="cls-2" d="M229.93,30.03l.16-1.31h.35l-.23,1.31h-.28Z"/>
    <path class="cls-2" d="M233.48,30.53c-.81,0-1.43-.21-1.85-.63s-.64-1.03-.64-1.84v-.97h.37v.97c0,.47.08.86.24,1.17.16.31.39.54.71.7.31.15.71.23,1.18.23h.58c.4,0,.7-.08.9-.23.21-.16.31-.38.31-.66v-.08h-1.13c-.27,0-.52-.07-.75-.2-.23-.13-.41-.32-.55-.55-.13-.23-.2-.48-.2-.75s.07-.52.2-.75c.13-.23.32-.41.55-.55.23-.13.48-.2.75-.2s.53.07.76.2c.23.13.41.32.54.55.13.23.2.49.2.77v1.56c0,.26-.06.48-.19.67s-.31.33-.54.44-.52.15-.85.15h-.58ZM234.14,28.82h1.13v-1.13c0-.2-.05-.39-.15-.57-.1-.18-.24-.31-.41-.41s-.36-.15-.57-.15-.4.05-.57.15-.31.24-.41.41c-.1.18-.15.37-.15.57s.05.39.15.57c.1.18.24.31.41.41.17.1.36.15.57.15ZM233.73,25.79c-.07,0-.13-.03-.19-.08-.05-.05-.08-.11-.08-.19s.03-.13.08-.19c.05-.05.11-.08.19-.08s.13.03.19.08c.05.05.08.11.08.19s-.03.13-.08.19c-.05.05-.11.08-.19.08ZM234.69,25.79c-.07,0-.13-.03-.19-.08-.05-.05-.08-.11-.08-.19s.03-.13.08-.19c.05-.05.11-.08.19-.08s.13.03.19.08c.05.05.08.11.08.19s-.03.13-.08.19c-.05.05-.11.08-.19.08Z"/>
    <path class="cls-2" d="M236.18,30.53c-.06,0-.12,0-.19-.02-.07-.01-.13-.03-.19-.05l.1-.34c.08.03.17.05.26.05.24,0,.41-.07.51-.22.1-.14.15-.35.15-.61v-3.15h.37v2.63h.76v.37h-.76v.2c0,.23-.03.43-.1.59s-.18.3-.33.4c-.15.1-.35.14-.59.14Z"/>
    <path class="cls-2" d="M237.85,29.19v-.37h3.43v-.54c0-.34-.08-.65-.22-.91-.14-.26-.34-.46-.6-.61s-.55-.22-.88-.22h-1.16v-.37h1.18c.4,0,.75.09,1.06.26.31.17.55.42.73.73s.26.68.27,1.09v.55h.56v.37h-4.35Z"/>
    <path class="cls-2" d="M242.08,29.19v-.37h1.09c-.19-.12-.35-.27-.46-.47-.12-.2-.17-.42-.17-.66,0-.27.07-.52.2-.75s.32-.41.55-.55c.23-.13.48-.2.75-.2s.52.07.75.2c.23.13.41.32.55.55.13.23.2.48.2.75v.56c0,.18.05.32.14.42.09.1.22.15.38.15h.16v.37h-.16c-.22,0-.4-.06-.53-.18-.14-.12-.22-.29-.25-.5-.13.21-.31.37-.53.5-.22.12-.46.19-.71.19h-1.95ZM244.03,28.82c.21,0,.4-.05.57-.15s.31-.24.41-.41c.1-.17.15-.36.15-.57s-.05-.39-.15-.57c-.1-.17-.24-.31-.41-.41s-.36-.15-.57-.15-.39.05-.57.15-.31.24-.41.41c-.1.17-.15.36-.15.57s.05.39.15.57c.1.17.24.31.41.41s.36.15.57.15Z"/>
    <path class="cls-2" d="M246.09,29.19v-.37h.16c.19,0,.33-.06.42-.19.09-.13.14-.31.14-.54v-3.58h.37v3.58c0,.22-.03.42-.1.58s-.17.29-.32.38c-.14.09-.31.13-.5.13h-.16Z"/>
    <path class="cls-2" d="M248.28,29.19v-4.68h.37v4.68h-.37Z"/>
    <path class="cls-2" d="M251.4,29.19v-4.38h1.65c.27,0,.51.06.72.18.21.12.38.28.5.48.12.2.18.42.18.67s-.06.47-.18.67-.29.37-.5.48c-.21.12-.46.18-.72.18h-1.27v1.72h-.38ZM253.05,27.1c.2,0,.38-.04.53-.13.16-.09.28-.21.36-.35s.13-.3.13-.47-.04-.33-.13-.47-.2-.26-.36-.35c-.16-.09-.33-.13-.53-.13h-1.26v1.91h1.26Z"/>
    <path class="cls-2" d="M254.97,29.21c-.07,0-.13-.03-.19-.08-.05-.05-.08-.12-.08-.19,0-.08.03-.14.08-.19.05-.05.12-.08.19-.08s.13.03.19.08c.05.05.08.12.08.19s-.03.13-.08.19-.11.08-.19.08Z"/>
    <path class="cls-2" d="M258.04,29.25c-.41,0-.78-.1-1.12-.3-.34-.2-.61-.48-.82-.82s-.3-.72-.3-1.12.1-.78.3-1.12c.2-.34.47-.61.82-.82s.72-.3,1.12-.3.78.1,1.12.3c.34.2.61.47.82.82.2.34.3.72.3,1.12s-.1.78-.3,1.12-.47.62-.82.82c-.34.2-.72.3-1.12.3ZM258.04,28.86c.33,0,.64-.08.92-.25s.51-.39.67-.67.25-.6.25-.94-.08-.65-.25-.93c-.16-.28-.39-.5-.67-.67s-.59-.25-.92-.25-.65.08-.93.25c-.28.16-.51.39-.67.67-.17.28-.25.59-.25.93s.08.66.25.94.39.51.67.67c.28.17.59.25.93.25Z"/>
    <path class="cls-2" d="M262.82,29.19v-4.38h1.52c.26,0,.49.05.69.15.2.1.35.23.45.4.1.17.16.36.16.57s-.05.39-.16.55c-.11.16-.25.28-.43.38.26.07.48.2.64.4s.24.43.24.71c0,.23-.06.44-.17.63-.11.19-.28.33-.48.44-.21.11-.45.16-.71.16h-1.73ZM264.35,26.73c.18,0,.33-.03.47-.1.14-.07.24-.16.32-.27.08-.11.11-.24.11-.39,0-.23-.08-.42-.24-.57-.16-.15-.38-.23-.68-.23h-1.13v1.55h1.15ZM264.53,28.81c.2,0,.38-.04.53-.11.15-.07.27-.18.35-.31.08-.13.12-.28.12-.45s-.04-.31-.12-.44-.19-.23-.34-.31c-.14-.07-.3-.11-.48-.11h-1.39v1.73h1.33Z"/>
    <path class="cls-2" d="M268.15,29.23c-.31,0-.59-.08-.85-.23-.26-.15-.47-.36-.62-.62-.15-.26-.23-.54-.23-.85s.08-.59.23-.84c.15-.26.35-.46.62-.61.26-.15.54-.23.85-.23s.58.07.84.23c.26.15.46.35.61.61s.23.54.23.84-.08.59-.23.85c-.15.26-.36.47-.61.62s-.54.23-.84.23ZM268.15,28.86c.23,0,.45-.06.65-.18.2-.12.36-.28.48-.48.12-.2.18-.42.18-.66s-.06-.45-.18-.65c-.12-.2-.28-.36-.48-.48-.2-.12-.42-.18-.65-.18s-.46.06-.66.18c-.2.12-.36.28-.48.48-.12.2-.18.42-.18.65s.06.46.18.66c.12.2.28.36.48.48.2.12.42.18.66.18Z"/>
    <path class="cls-2" d="M270.01,29.19l1.32-1.65-1.32-1.65h.46l1.12,1.36,1.11-1.36h.45l-1.31,1.65,1.31,1.65h-.45l-1.11-1.36-1.12,1.36h-.46Z"/>
    <path class="cls-2" d="M275.15,29.19v-.29l1.93-1.65c.2-.16.36-.34.47-.52s.17-.38.17-.58c0-.21-.05-.4-.14-.56-.09-.16-.22-.28-.38-.37s-.34-.13-.53-.13c-.27,0-.5.08-.71.23-.2.15-.34.34-.42.55l-.34-.13c.06-.19.16-.36.31-.52.14-.16.32-.28.51-.37.2-.09.41-.13.63-.13.27,0,.51.06.73.17.22.12.39.28.52.5s.19.46.19.74c0,.26-.07.49-.2.72-.13.22-.32.44-.55.64l-1.6,1.34h2.47v.35h-3.05Z"/>
    <path class="cls-2" d="M280.26,29.27c-.35,0-.66-.08-.93-.24-.27-.16-.47-.37-.6-.62l.34-.14c.08.18.24.33.46.45.22.12.47.18.73.18.22,0,.42-.04.59-.12.17-.08.31-.19.41-.34s.15-.31.15-.5-.05-.35-.16-.49c-.11-.14-.25-.25-.43-.33-.18-.08-.37-.11-.58-.11h-.2v-.35h.2c.18,0,.35-.03.5-.1.15-.07.27-.16.36-.28.09-.12.14-.25.14-.4,0-.16-.04-.29-.13-.42-.09-.12-.21-.22-.36-.28-.15-.07-.32-.1-.51-.1s-.38.04-.54.12c-.17.08-.29.18-.37.31l-.34-.14c.11-.19.28-.35.51-.47.23-.12.47-.18.74-.18s.48.05.69.14c.21.09.38.22.5.4s.18.37.18.61c0,.22-.06.41-.19.58s-.29.3-.5.39c.26.1.47.24.62.44.16.2.23.43.23.7s-.07.48-.2.68c-.13.2-.31.35-.54.46-.23.11-.48.16-.77.16Z"/>
    <path class="cls-2" d="M284.13,29.27c-.33,0-.63-.09-.88-.28-.26-.18-.46-.45-.6-.79-.15-.34-.22-.74-.22-1.2s.07-.87.22-1.21c.15-.34.35-.6.6-.78.26-.18.55-.27.88-.27s.62.09.88.27c.26.18.46.44.6.78.14.34.22.74.22,1.21s-.07.86-.22,1.2c-.14.34-.34.6-.6.79-.26.18-.55.28-.87.28ZM284.13,28.9c.25,0,.47-.07.67-.21s.36-.36.47-.65.18-.64.18-1.06-.06-.74-.18-1.02c-.12-.28-.28-.49-.48-.63s-.42-.21-.67-.21-.47.07-.67.21c-.2.14-.36.35-.48.63-.12.28-.18.62-.18,1.02s.06.77.18,1.06.28.5.48.65c.2.14.43.21.67.21Z"/>
    <path class="cls-2" d="M286.34,29.19v-.29l1.93-1.65c.2-.16.36-.34.47-.52s.17-.38.17-.58c0-.21-.05-.4-.14-.56-.09-.16-.22-.28-.38-.37s-.34-.13-.53-.13c-.27,0-.5.08-.71.23-.2.15-.34.34-.42.55l-.34-.13c.06-.19.16-.36.31-.52.14-.16.32-.28.51-.37.2-.09.41-.13.63-.13.27,0,.51.06.73.17.22.12.39.28.52.5s.19.46.19.74c0,.26-.07.49-.2.72-.13.22-.32.44-.55.64l-1.6,1.34h2.47v.35h-3.05Z"/>
    <path class="cls-2" d="M291.43,29.25c-.33,0-.63-.09-.9-.28-.27-.19-.46-.43-.57-.73l.35-.13c.08.23.23.41.43.55s.44.21.69.21c.22,0,.42-.05.6-.16.19-.11.33-.25.44-.43.11-.18.16-.38.16-.6s-.05-.42-.16-.61c-.11-.18-.25-.33-.44-.44-.18-.11-.39-.16-.61-.16s-.42.05-.61.16-.34.25-.44.42h-.37l.16-2.25h2.72v.35h-2.38l-.1,1.4c.13-.14.29-.24.48-.32.19-.08.38-.12.58-.12.28,0,.54.07.78.21.24.14.42.33.56.56.14.24.2.5.2.79s-.07.54-.21.78c-.14.24-.33.43-.58.57-.24.14-.51.21-.79.21Z"/>
  </g>
  <g>
    <path class="cls-2" d="M57.11,17.06c-.39,0-.71-.06-.97-.19-.26-.13-.46-.33-.58-.58-.13-.26-.2-.58-.2-.97v-.65h.37v.65c0,.48.11.83.34,1.05.22.22.57.34,1.05.34h.98c.22,0,.38-.07.49-.2.11-.14.16-.33.16-.57v-1.86h.37v1.86c0,.23-.04.43-.12.61-.08.17-.2.3-.35.4-.15.09-.33.14-.54.14h-.98ZM56.82,13.67c-.07,0-.13-.03-.18-.08-.05-.05-.08-.11-.08-.18,0-.08.03-.14.08-.19.05-.05.11-.07.18-.07.08,0,.14.02.19.07.05.05.07.11.07.19,0,.07-.02.13-.07.18-.05.05-.11.08-.19.08ZM57.76,13.67c-.07,0-.13-.03-.18-.08s-.08-.11-.08-.18c0-.08.03-.14.08-.19.05-.05.11-.07.18-.07s.14.02.19.07c.05.05.08.11.08.19,0,.07-.03.13-.08.18s-.11.08-.19.08Z"/>
    <path class="cls-2" d="M61.02,17.06c-.2,0-.37-.04-.51-.13-.14-.09-.24-.22-.31-.38-.07-.16-.11-.36-.11-.58v-3.58h.37v3.58c0,.23.04.41.13.54s.23.19.42.19h.15v.37h-.15Z"/>
    <path class="cls-2" d="M61.05,17.06v-.37h.16c.19,0,.33-.06.42-.19.09-.13.14-.31.14-.54v-1.9h.37v1.79c0,.27.06.48.19.63.13.15.29.22.48.22s.36-.07.48-.22c.13-.15.19-.35.19-.63v-1.79h.37v1.79c0,.27.06.48.19.63.13.15.29.22.48.22s.35-.07.48-.22c.13-.15.19-.35.19-.63v-1.79h.37v1.79c0,.25-.04.47-.13.65-.09.18-.21.32-.37.42-.16.1-.33.14-.52.14s-.36-.05-.51-.14c-.15-.1-.26-.23-.34-.41-.08.18-.2.31-.35.41-.15.1-.32.14-.51.14s-.34-.04-.48-.13-.26-.21-.34-.37c-.13.33-.38.5-.76.5h-.16Z"/>
    <path class="cls-2" d="M67.36,17.06c-.2,0-.37-.04-.51-.13-.14-.09-.24-.22-.31-.38-.07-.16-.11-.36-.11-.58v-3.58h.37v3.58c0,.23.04.41.13.54s.23.19.42.19h.15v.37h-.15Z"/>
    <path class="cls-2" d="M67.39,17.06v-.37h.32c.19,0,.33-.06.42-.19.09-.13.14-.31.14-.54v-1.9h.37v1.9c0,.23.05.41.14.54s.23.19.43.19h.32v.37h-.32c-.35,0-.6-.15-.74-.44-.15.3-.4.44-.74.44h-.32ZM67.99,18.17c-.07,0-.13-.03-.18-.08-.05-.05-.08-.11-.08-.19s.02-.13.08-.19c.05-.05.11-.08.18-.08s.13.03.19.08c.05.05.08.11.08.19,0,.07-.03.13-.08.18-.05.05-.11.08-.19.08ZM68.93,18.17c-.07,0-.13-.03-.18-.08s-.08-.11-.08-.19.03-.13.08-.19.11-.08.18-.08.13.03.19.08.08.11.08.19c0,.07-.03.13-.08.18s-.11.08-.19.08Z"/>
    <path class="cls-2" d="M69.41,17.06v-.37h.16c.19,0,.33-.06.42-.19.09-.13.14-.31.14-.54v-1.9h.37v1.79c0,.27.06.48.19.63.13.15.29.22.48.22s.36-.07.48-.22c.13-.15.19-.35.19-.63v-1.79h.37v1.79c0,.27.06.48.19.63.13.15.29.22.48.22s.35-.07.48-.22c.13-.15.19-.35.19-.63v-1.79h.37v1.79c0,.25-.04.47-.13.65-.09.18-.21.32-.37.42-.16.1-.33.14-.52.14s-.36-.05-.51-.14c-.15-.1-.26-.23-.34-.41-.08.18-.2.31-.35.41-.15.1-.32.14-.51.14s-.34-.04-.48-.13-.26-.21-.34-.37c-.13.33-.38.5-.76.5h-.16Z"/>
    <path class="cls-2" d="M55.25,24.26v-.37h.49v-4.31h.37v2.77c.26-.33.53-.59.81-.79.28-.2.58-.3.9-.3.28,0,.52.07.74.2.21.13.38.32.49.55.12.24.17.51.17.81v.34c0,.23.04.41.13.54s.23.19.42.19h.16v.37h-.16c-.19,0-.35-.04-.47-.13-.12-.08-.22-.21-.28-.37-.09.16-.2.29-.35.37-.14.08-.3.13-.48.13h-2.93ZM58.19,23.89c.19,0,.35-.07.48-.22.13-.14.19-.35.19-.62v-.23c0-.24-.04-.45-.13-.63-.09-.18-.21-.32-.37-.42-.16-.1-.35-.15-.56-.15-.3,0-.58.11-.85.33-.27.22-.55.51-.83.88v1.06h2.08Z"/>
    <path class="cls-2" d="M59.81,24.26v-.37h.16c.19,0,.33-.06.42-.19.09-.13.14-.31.14-.54v-1.9h.37v1.9c0,.22-.03.42-.1.58s-.17.29-.32.38c-.14.09-.31.13-.5.13h-.16ZM60.69,25.29c-.07,0-.13-.03-.19-.08s-.08-.12-.08-.19.03-.14.08-.19.11-.08.19-.08.14.03.19.08c.05.05.08.11.08.19s-.03.13-.08.19c-.05.05-.12.08-.19.08Z"/>
    <path class="cls-2" d="M61.88,24.26v-4.68h.37v4.68h-.37Z"/>
    <path class="cls-2" d="M64.68,25.59c-.26,0-.5-.05-.72-.15-.22-.1-.4-.25-.54-.44l.26-.24c.11.14.25.26.43.34.18.08.37.13.57.13s.39-.05.55-.14c.16-.09.28-.21.38-.36.09-.15.15-.31.17-.48h-1.04c-.31,0-.58-.06-.83-.19-.24-.13-.44-.31-.57-.54-.14-.23-.21-.49-.21-.78,0-.27.07-.52.2-.76.13-.23.32-.42.55-.55.23-.13.49-.2.76-.2.29,0,.55.07.78.21.23.14.41.33.53.58.13.25.19.53.19.84v1.03h.55v.37h-.56c-.02.24-.1.46-.22.67s-.29.37-.5.49-.46.18-.73.18ZM64.73,23.89h1.04v-1.06c0-.24-.05-.45-.14-.64-.09-.19-.23-.33-.4-.44-.17-.1-.37-.16-.6-.16-.21,0-.41.05-.58.15s-.31.24-.41.41c-.1.18-.15.37-.15.58,0,.23.05.43.16.6.1.17.25.31.44.41s.41.14.65.14Z"/>
    <path class="cls-2" d="M66.58,24.26v-.37h.76v-2.63h.36v1.09c.26-.33.53-.59.81-.79.28-.2.58-.3.9-.3.27,0,.51.07.73.2s.38.32.5.55c.12.24.18.51.18.81v.34c0,.34-.08.61-.25.81-.16.19-.4.29-.71.29h-3.29ZM69.86,23.89c.2,0,.34-.06.44-.19s.15-.31.15-.54v-.34c0-.24-.04-.44-.13-.62-.09-.18-.21-.32-.37-.42-.16-.1-.35-.15-.56-.15-.3,0-.58.11-.85.33-.27.22-.55.51-.83.88v1.06h2.17ZM69.09,20.88c-.07,0-.13-.03-.19-.08s-.08-.12-.08-.19.03-.14.08-.19c.05-.05.11-.08.19-.08s.13.03.19.08c.05.05.08.12.08.19s-.03.13-.08.19c-.05.05-.12.08-.19.08Z"/>
    <path class="cls-2" d="M72.96,25.59c-.26,0-.5-.05-.72-.15-.22-.1-.4-.25-.54-.44l.26-.24c.11.14.25.26.43.34.18.08.37.13.57.13.32,0,.57-.09.77-.28.19-.19.3-.42.33-.7h-1.04c-.31,0-.58-.06-.83-.19-.24-.13-.44-.31-.57-.54-.14-.23-.21-.49-.21-.78,0-.27.07-.52.2-.76.13-.23.32-.42.55-.55.23-.13.49-.2.76-.2.29,0,.55.07.78.21.23.14.41.33.53.58.13.25.19.53.19.84v1.24c0,.27-.06.52-.17.75-.12.23-.29.41-.51.54-.22.13-.48.2-.78.2ZM73.01,23.89h1.04v-1.06c0-.24-.05-.45-.14-.64-.09-.19-.23-.33-.4-.44-.17-.1-.37-.16-.6-.16-.21,0-.41.05-.58.15s-.31.24-.41.41c-.1.18-.15.37-.15.58,0,.23.05.43.16.6.1.17.25.31.44.41s.41.14.65.14Z"/>
    <path class="cls-2" d="M55.73,32.9c-.12-.1-.21-.22-.27-.35-.07-.14-.1-.28-.1-.44,0-.25.08-.46.25-.64s.41-.28.73-.32c-.21-.13-.38-.31-.51-.54-.13-.23-.19-.47-.19-.73,0-.27.07-.52.2-.73.13-.22.31-.39.54-.51.23-.12.48-.19.75-.19.2,0,.39.04.57.11.18.07.34.18.48.32l-.22.27c-.11-.1-.23-.18-.37-.24-.14-.06-.29-.09-.45-.09-.21,0-.4.05-.57.14s-.31.22-.41.39c-.1.16-.15.35-.15.56s.05.4.15.58c.1.18.24.33.41.44s.36.17.57.17h1.28v.37h-1.78c-.3,0-.52.06-.67.18s-.23.28-.23.47c0,.11.02.21.07.29.04.09.11.16.19.23l-.25.27Z"/>
    <path class="cls-2" d="M58.73,32.8c-.06,0-.12,0-.19-.02-.07-.01-.13-.03-.19-.05l.1-.34c.08.03.17.05.26.05.24,0,.41-.07.51-.22s.15-.35.15-.61v-3.15h.37v2.63h.76v.37h-.76v.2c0,.23-.03.43-.1.59s-.18.3-.33.4c-.15.1-.35.14-.59.14Z"/>
    <path class="cls-2" d="M60.39,31.46v-.37h.16c.19,0,.33-.06.42-.19.09-.13.14-.31.14-.54v-1.9h.37v1.9c0,.23.05.41.14.54s.23.19.42.19h.16v.37h-.16c-.35,0-.59-.15-.74-.44-.15.3-.4.44-.74.44h-.16ZM61.29,32.53c-.07,0-.13-.03-.19-.08-.05-.05-.08-.11-.08-.19s.03-.14.08-.19c.05-.05.12-.08.19-.08.08,0,.14.03.19.08.05.05.08.12.08.19s-.03.13-.08.19c-.05.05-.12.08-.19.08Z"/>
    <path class="cls-2" d="M62.07,31.46v-.37h.32c.19,0,.33-.06.43-.19.09-.13.14-.31.14-.54v-1.9h.36v1.9c0,.23.05.41.14.54s.23.19.43.19h.32v.37h-.32c-.35,0-.6-.15-.74-.44-.15.3-.4.44-.74.44h-.32ZM62.68,28.07c-.07,0-.13-.03-.19-.08-.05-.05-.08-.11-.08-.18,0-.08.03-.14.08-.19s.11-.08.19-.08.13.03.19.08c.05.05.08.11.08.19,0,.07-.03.13-.08.18-.05.05-.11.08-.19.08ZM63.61,28.07c-.07,0-.13-.03-.19-.08-.05-.05-.08-.11-.08-.18,0-.08.03-.14.08-.19s.11-.08.19-.08.13.03.19.08.08.11.08.19c0,.07-.03.13-.08.18-.05.05-.11.08-.19.08Z"/>
    <path class="cls-2" d="M64.09,31.46v-.37h.16c.19,0,.33-.06.42-.19.09-.13.14-.31.14-.54v-3.58h.37v3.58c0,.22-.03.42-.1.58s-.17.29-.32.38c-.14.09-.31.13-.5.13h-.16Z"/>
    <path class="cls-2" d="M66.27,31.46v-4.68h.37v4.68h-.37Z"/>
  </g>
  <g>
    <path class="cls-2" d="M106.17,36.75v-6.57h1.71v2.29l1.57-2.29h1.88l-1.96,2.77,2.11,3.8h-1.96l-1.19-2.21-.44.57v1.65h-1.71Z"/>
    <path class="cls-2" d="M113.51,36.83c-.41,0-.79-.12-1.14-.35s-.62-.54-.83-.93-.31-.82-.31-1.28.1-.89.31-1.28c.21-.39.48-.7.83-.93.34-.23.72-.34,1.14-.34.28,0,.54.07.79.2.24.13.44.31.58.53l.1-.64h1.44v4.95h-1.44l-.1-.65c-.14.22-.34.39-.58.52-.24.13-.5.2-.79.2ZM113.82,35.27c.19,0,.36-.04.51-.14.16-.09.28-.21.36-.36s.13-.32.13-.5-.04-.35-.13-.5c-.09-.15-.21-.27-.36-.36-.16-.09-.33-.13-.51-.13s-.35.04-.5.13c-.15.09-.27.21-.36.36-.09.15-.13.32-.13.5s.04.35.13.5.21.27.36.36c.15.09.31.14.5.14Z"/>
    <path class="cls-2" d="M119.35,36.83c-.41,0-.79-.12-1.14-.35s-.62-.54-.83-.93-.31-.82-.31-1.28.1-.89.31-1.28c.21-.39.48-.7.83-.93.34-.23.72-.34,1.14-.34.28,0,.54.07.79.2.24.13.44.31.58.53l.1-.64h1.44v4.95h-1.44l-.1-.65c-.14.22-.34.39-.58.52-.24.13-.5.2-.79.2ZM119.67,35.27c.19,0,.36-.04.51-.14.16-.09.28-.21.36-.36s.13-.32.13-.5-.04-.35-.13-.5c-.09-.15-.21-.27-.36-.36-.16-.09-.33-.13-.51-.13s-.35.04-.5.13c-.15.09-.27.21-.36.36-.09.15-.13.32-.13.5s.04.35.13.5.21.27.36.36c.15.09.31.14.5.14Z"/>
    <path class="cls-2" d="M125.03,36.75h-1.59v-3.56h-.63v-1.4h.63v-.07c0-.5.1-.92.29-1.24.2-.32.45-.56.77-.71.31-.15.66-.23,1.04-.23s.69.05.96.16l-.4,1.4s-.04,0-.06,0c-.02,0-.04,0-.05,0-.08-.02-.17-.03-.26-.03-.23,0-.4.05-.51.16-.11.11-.17.27-.17.49v.07h1.07v1.4h-1.07v3.56Z"/>
    <path class="cls-2" d="M127.57,36.89c-.24,0-.44-.08-.61-.25-.17-.17-.25-.36-.25-.59,0-.24.08-.44.25-.61s.37-.25.61-.25.42.08.59.25c.16.17.24.37.24.61s-.08.42-.24.59c-.16.16-.36.25-.59.25Z"/>
    <path class="cls-2" d="M131.94,36.83c-.28,0-.54-.07-.78-.2-.24-.13-.43-.31-.58-.52l-.11.65h-1.44v-7.02h1.59v2.65c.14-.2.32-.37.56-.49s.49-.18.76-.18c.41,0,.79.11,1.14.34.35.23.63.54.83.93.2.39.31.82.31,1.28s-.1.89-.31,1.28-.48.7-.83.93-.73.35-1.14.35ZM131.63,35.27c.19,0,.35-.04.5-.14.15-.09.27-.21.36-.36s.13-.32.13-.5-.04-.35-.13-.5c-.09-.15-.21-.27-.36-.36-.15-.09-.31-.13-.5-.13s-.35.04-.5.13c-.15.09-.27.21-.36.36-.09.15-.13.32-.13.5s.04.35.13.5.21.27.36.36c.15.09.32.14.5.14Z"/>
    <path class="cls-2" d="M134.86,36.75v-7.02h1.59v2.62c.14-.2.31-.35.52-.47.21-.11.43-.17.67-.17.38,0,.72.09,1,.26.28.17.5.45.66.82s.23.85.23,1.43v2.53h-1.58v-2.53c0-.22-.03-.4-.1-.54-.07-.14-.16-.25-.27-.31-.11-.07-.24-.1-.37-.1s-.26.03-.37.09c-.11.06-.21.17-.27.31-.07.15-.1.33-.1.54v2.53h-1.59Z"/>
  </g>
  <g>
    <path class="cls-2" d="M215.64,38.54v-4.38h.43l1.85,3.13,1.85-3.13h.43v4.38h-.38v-3.76l-1.76,2.98h-.27l-1.76-2.98v3.76h-.38Z"/>
    <path class="cls-2" d="M222.54,38.58c-.26,0-.5-.06-.71-.19s-.38-.31-.5-.56-.18-.56-.18-.92v-1.67h.37v1.67c0,.29.05.53.14.72.1.19.22.34.38.43.16.1.34.14.55.14s.39-.05.55-.14c.16-.1.29-.24.38-.43.1-.19.14-.43.14-.72v-1.67h.37v3.3h-.35v-.67c-.11.21-.25.38-.45.51-.2.13-.43.2-.7.2Z"/>
    <path class="cls-2" d="M225.02,38.54v-4.68h.37v2.05c.1-.21.24-.38.44-.51.2-.13.43-.19.7-.19s.51.06.71.19.37.31.49.56.18.55.18.92v1.67h-.37v-1.67c0-.29-.05-.53-.14-.72-.09-.19-.22-.34-.38-.43-.16-.1-.35-.14-.55-.14s-.38.05-.54.14c-.16.09-.29.24-.39.43s-.14.44-.14.72v1.67h-.37Z"/>
    <path class="cls-2" d="M230.23,38.58c-.3,0-.58-.08-.83-.23s-.45-.35-.6-.61c-.15-.26-.23-.54-.23-.84s.08-.59.23-.85c.15-.26.35-.46.6-.61s.53-.23.83-.23.58.08.83.24c.25.16.43.37.54.61l.02-.82h.35v3.3h-.35l-.02-.8c-.1.24-.28.44-.54.6-.25.16-.53.24-.83.24ZM230.27,38.21c.24,0,.46-.06.66-.18.2-.12.37-.28.48-.48.12-.2.18-.42.18-.66s-.06-.46-.18-.66c-.12-.2-.28-.36-.48-.48s-.42-.18-.66-.18-.46.06-.66.18-.36.28-.48.48c-.12.2-.18.42-.18.66s.06.46.18.66c.12.2.28.36.48.48.2.12.42.18.66.18Z"/>
    <path class="cls-2" d="M232.95,38.54v-3.29h.35s.02.59.02.59c.1-.19.25-.34.44-.45.19-.11.42-.16.67-.16.06,0,.13,0,.2.01l-.07.36c-.05,0-.1-.01-.13-.01-.33,0-.6.11-.8.32-.2.22-.31.55-.31,1v1.63h-.37Z"/>
    <path class="cls-2" d="M235.29,38.54v-3.29h.35s.02.59.02.59c.1-.19.25-.34.44-.45.19-.11.42-.16.67-.16.06,0,.13,0,.2.01l-.07.36c-.05,0-.1-.01-.13-.01-.33,0-.6.11-.8.32-.2.22-.31.55-.31,1v1.63h-.37Z"/>
    <path class="cls-2" d="M238.91,38.58c-.3,0-.58-.08-.83-.23s-.45-.35-.6-.61c-.15-.26-.23-.54-.23-.84s.08-.59.23-.85c.15-.26.35-.46.6-.61s.53-.23.83-.23.58.08.83.24c.25.16.43.37.54.61l.02-.82h.35v3.3h-.35l-.02-.8c-.1.24-.28.44-.54.6-.25.16-.53.24-.83.24ZM238.95,38.21c.24,0,.46-.06.66-.18.2-.12.37-.28.48-.48.12-.2.18-.42.18-.66s-.06-.46-.18-.66c-.12-.2-.28-.36-.48-.48s-.42-.18-.66-.18-.46.06-.66.18-.36.28-.48.48c-.12.2-.18.42-.18.66s.06.46.18.66c.12.2.28.36.48.48.2.12.42.18.66.18Z"/>
    <path class="cls-2" d="M244.43,37.73c-.1.24-.28.45-.54.61-.25.16-.53.24-.83.24s-.57-.08-.82-.23c-.25-.15-.45-.36-.6-.62-.15-.26-.22-.54-.22-.85s.07-.59.22-.84c.15-.26.35-.46.6-.61.25-.15.53-.23.82-.23s.58.08.83.24c.26.16.44.36.54.6v-.8h.37v4.62h-.37v-2.13ZM243.1,38.21c.24,0,.46-.06.66-.18.2-.12.36-.28.48-.48.12-.2.18-.42.18-.66s-.06-.46-.18-.66-.28-.36-.48-.48-.42-.18-.66-.18-.45.06-.65.18c-.2.12-.37.28-.48.48s-.18.42-.18.66.06.46.18.66c.12.2.28.36.48.48.2.12.42.18.65.18Z"/>
    <path class="cls-2" d="M245.51,39.38l.16-1.31h.35l-.23,1.31h-.28Z"/>
    <path class="cls-2" d="M248.45,38.54v-4.38h.38v2.38l2.22-2.38h.47l-1.64,1.79,1.81,2.59h-.46l-1.6-2.26-.8.83v1.42h-.38Z"/>
    <path class="cls-2" d="M252.52,34.85c-.07,0-.14-.03-.19-.08-.06-.05-.08-.12-.08-.2s.03-.14.08-.19c.06-.05.12-.08.19-.08s.14.03.19.08c.05.06.08.12.08.19,0,.08-.03.14-.08.2-.05.05-.12.08-.19.08ZM252.34,38.54v-3.3h.37v3.3h-.37Z"/>
    <path class="cls-2" d="M253.69,38.54v-3.3h.35v.67c.11-.21.25-.38.45-.51.2-.13.43-.2.7-.2s.51.06.71.19.37.31.49.56.18.55.18.92v1.67h-.37v-1.67c0-.29-.05-.53-.14-.72-.09-.19-.22-.34-.38-.43-.16-.1-.35-.14-.55-.14s-.38.05-.54.14c-.16.09-.29.24-.39.43s-.14.44-.14.72v1.67h-.37Z"/>
    <path class="cls-2" d="M258.86,39.9c-.28,0-.54-.06-.79-.17-.25-.12-.45-.27-.6-.47l.28-.22c.12.16.29.29.49.38.2.09.41.14.64.14.26,0,.5-.05.71-.15.21-.1.37-.26.5-.48.12-.22.18-.5.18-.83v-.33c-.1.24-.28.44-.54.6-.25.16-.53.24-.83.24s-.58-.08-.83-.23-.45-.35-.6-.61c-.15-.26-.23-.54-.23-.84s.08-.59.23-.85c.15-.26.35-.46.6-.61s.53-.23.83-.23.58.08.83.24c.25.16.43.37.54.61l.02-.82h.35v2.79c0,.41-.08.76-.23,1.04-.15.28-.36.49-.63.62-.27.14-.57.2-.91.2ZM258.94,38.21c.24,0,.46-.06.66-.18.2-.12.37-.28.48-.48.12-.2.18-.42.18-.66s-.06-.46-.18-.66c-.12-.2-.28-.36-.48-.48s-.42-.18-.66-.18-.46.06-.66.18-.36.28-.48.48c-.12.2-.18.42-.18.66s.06.46.18.66c.12.2.28.36.48.48.2.12.42.18.66.18Z"/>
    <path class="cls-2" d="M263.05,38.58c-.3,0-.58-.08-.83-.23s-.45-.35-.6-.61c-.15-.26-.23-.54-.23-.84s.08-.59.23-.85c.15-.26.35-.46.6-.61s.53-.23.83-.23.57.08.83.24c.25.16.43.36.54.61v-2.19h.37v4.68h-.35l-.02-.8c-.1.24-.28.44-.54.6-.25.16-.53.24-.83.24ZM263.09,38.21c.24,0,.46-.06.66-.18.2-.12.37-.28.48-.48.12-.2.18-.42.18-.66s-.06-.46-.18-.66c-.12-.2-.28-.36-.48-.48s-.42-.18-.66-.18-.46.06-.66.18-.36.28-.48.48c-.12.2-.18.42-.18.66s.06.46.18.66c.12.2.28.36.48.48.2.12.42.18.66.18Z"/>
    <path class="cls-2" d="M267.23,38.58c-.31,0-.59-.08-.85-.23-.26-.15-.47-.36-.62-.62-.15-.26-.23-.54-.23-.85s.08-.59.23-.84c.15-.26.35-.46.62-.61.26-.15.54-.23.85-.23s.58.07.84.23c.26.15.46.35.61.61s.23.54.23.84-.08.59-.23.85c-.15.26-.36.47-.61.62s-.54.23-.84.23ZM267.23,38.21c.23,0,.45-.06.65-.18.2-.12.36-.28.48-.48.12-.2.18-.42.18-.66s-.06-.45-.18-.65c-.12-.2-.28-.36-.48-.48-.2-.12-.42-.18-.65-.18s-.46.06-.66.18c-.2.12-.36.28-.48.48-.12.2-.18.42-.18.65s.06.46.18.66c.12.2.28.36.48.48.2.12.42.18.66.18Z"/>
    <path class="cls-2" d="M269.68,38.54v-3.3h.35v.62c.09-.21.22-.37.4-.48.18-.11.36-.17.56-.17.28,0,.5.07.68.22.18.15.3.34.37.58.06-.23.19-.42.37-.57.18-.15.4-.23.65-.23.36,0,.65.13.87.38.22.25.33.65.33,1.19v1.77h-.37v-1.77c0-.42-.08-.73-.24-.92s-.37-.29-.63-.29-.45.1-.62.29-.25.5-.25.91v1.77h-.37v-1.77c0-.42-.08-.73-.24-.92-.16-.19-.37-.29-.62-.29-.16,0-.31.05-.44.14-.13.09-.23.24-.31.44-.08.2-.12.44-.12.72v1.67h-.37Z"/>
    <path class="cls-2" d="M278.29,38.58c-.31,0-.59-.08-.85-.23-.26-.15-.47-.36-.62-.62-.15-.26-.23-.54-.23-.85s.08-.59.23-.84c.15-.26.35-.46.62-.61.26-.15.54-.23.85-.23s.58.07.84.23c.26.15.46.35.61.61s.23.54.23.84-.08.59-.23.85c-.15.26-.36.47-.61.62s-.54.23-.84.23ZM278.29,38.21c.23,0,.45-.06.65-.18.2-.12.36-.28.48-.48.12-.2.18-.42.18-.66s-.06-.45-.18-.65c-.12-.2-.28-.36-.48-.48-.2-.12-.42-.18-.65-.18s-.46.06-.66.18c-.2.12-.36.28-.48.48-.12.2-.18.42-.18.65s.06.46.18.66c.12.2.28.36.48.48.2.12.42.18.66.18Z"/>
    <path class="cls-2" d="M281.19,38.55h-.37v-2.96h-.42v-.34h.42v-.16c0-.31.04-.56.13-.76.09-.19.21-.33.37-.42s.33-.13.54-.13c.11,0,.23.02.35.06l-.1.34s-.02,0-.03,0-.02,0-.03,0c-.06-.01-.12-.02-.17-.02-.22,0-.4.07-.52.21s-.18.38-.18.73v.16h.92v.34h-.92v2.96Z"/>
    <path class="cls-2" d="M284.48,38.54v-4.38h1.52c.26,0,.49.05.69.15.2.1.35.23.45.4.1.17.16.36.16.57s-.05.39-.16.55c-.11.16-.25.28-.43.38.26.07.48.2.64.4s.24.43.24.71c0,.23-.06.44-.17.63-.11.19-.28.33-.48.44-.21.11-.45.16-.71.16h-1.73ZM286.01,36.08c.18,0,.33-.03.47-.1.14-.07.24-.16.32-.27.08-.11.11-.24.11-.39,0-.23-.08-.42-.24-.57-.16-.15-.38-.23-.68-.23h-1.13v1.55h1.15ZM286.19,38.17c.2,0,.38-.04.53-.11.15-.07.27-.18.35-.31.08-.13.12-.28.12-.45s-.04-.31-.12-.44-.19-.23-.34-.31c-.14-.07-.3-.11-.48-.11h-1.39v1.73h1.33Z"/>
    <path class="cls-2" d="M289.77,38.58c-.3,0-.58-.08-.83-.23s-.45-.35-.6-.61c-.15-.26-.23-.54-.23-.84s.08-.59.23-.85c.15-.26.35-.46.6-.61s.53-.23.83-.23.58.08.83.24c.25.16.43.37.54.61l.02-.82h.35v3.3h-.35l-.02-.8c-.1.24-.28.44-.54.6-.25.16-.53.24-.83.24ZM289.81,38.21c.24,0,.46-.06.66-.18.2-.12.37-.28.48-.48.12-.2.18-.42.18-.66s-.06-.46-.18-.66c-.12-.2-.28-.36-.48-.48s-.42-.18-.66-.18-.46.06-.66.18-.36.28-.48.48c-.12.2-.18.42-.18.66s.06.46.18.66c.12.2.28.36.48.48.2.12.42.18.66.18Z"/>
    <path class="cls-2" d="M292.49,38.54v-4.68h.37v2.05c.1-.21.24-.38.44-.51.2-.13.43-.19.7-.19s.51.06.71.19.37.31.49.56.18.55.18.92v1.67h-.37v-1.67c0-.29-.05-.53-.14-.72-.09-.19-.22-.34-.38-.43-.16-.1-.35-.14-.55-.14s-.38.05-.54.14c-.16.09-.29.24-.39.43s-.14.44-.14.72v1.67h-.37Z"/>
    <path class="cls-2" d="M296.28,38.54v-3.29h.35s.02.59.02.59c.1-.19.25-.34.44-.45.19-.11.42-.16.67-.16.06,0,.13,0,.2.01l-.07.36c-.05,0-.1-.01-.13-.01-.33,0-.6.11-.8.32-.2.22-.31.55-.31,1v1.63h-.37Z"/>
    <path class="cls-2" d="M299.89,38.58c-.3,0-.58-.08-.83-.23s-.45-.35-.6-.61c-.15-.26-.23-.54-.23-.84s.08-.59.23-.85c.15-.26.35-.46.6-.61s.53-.23.83-.23.58.08.83.24c.25.16.43.37.54.61l.02-.82h.35v3.3h-.35l-.02-.8c-.1.24-.28.44-.54.6-.25.16-.53.24-.83.24ZM299.93,38.21c.24,0,.46-.06.66-.18.2-.12.37-.28.48-.48.12-.2.18-.42.18-.66s-.06-.46-.18-.66c-.12-.2-.28-.36-.48-.48s-.42-.18-.66-.18-.46.06-.66.18-.36.28-.48.48c-.12.2-.18.42-.18.66s.06.46.18.66c.12.2.28.36.48.48.2.12.42.18.66.18Z"/>
    <path class="cls-2" d="M302.8,34.85c-.07,0-.14-.03-.19-.08-.06-.05-.08-.12-.08-.2s.03-.14.08-.19c.06-.05.12-.08.19-.08s.14.03.19.08c.05.06.08.12.08.19,0,.08-.03.14-.08.2-.05.05-.12.08-.19.08ZM302.61,38.54v-3.3h.37v3.3h-.37Z"/>
    <path class="cls-2" d="M303.96,38.54v-3.3h.35v.67c.11-.21.25-.38.45-.51.2-.13.43-.2.7-.2s.51.06.71.19.37.31.49.56.18.55.18.92v1.67h-.37v-1.67c0-.29-.05-.53-.14-.72-.09-.19-.22-.34-.38-.43-.16-.1-.35-.14-.55-.14s-.38.05-.54.14c-.16.09-.29.24-.39.43s-.14.44-.14.72v1.67h-.37Z"/>
  </g>
  <g>
    <path class="cls-2" d="M328.51,36.75v-4.38h2.65v.37h-2.27v1.58h2.15v.36h-2.15v1.69h2.33v.38h-2.71Z"/>
    <path class="cls-2" d="M332.04,36.75v-3.3h.35v.62c.09-.21.22-.37.4-.48s.36-.17.56-.17c.28,0,.5.07.68.22.18.15.3.34.37.58.06-.23.19-.42.37-.57s.4-.22.65-.22c.36,0,.65.13.87.38.22.25.33.65.33,1.18v1.77h-.37v-1.77c0-.42-.08-.72-.24-.92-.16-.19-.37-.29-.63-.29s-.45.1-.62.29c-.17.19-.25.5-.25.91v1.77h-.37v-1.77c0-.42-.08-.72-.24-.92-.16-.19-.37-.29-.62-.29-.16,0-.31.05-.44.14-.13.09-.23.24-.31.43-.08.2-.12.44-.12.72v1.67h-.37Z"/>
    <path class="cls-2" d="M338.95,36.79c-.3,0-.57-.08-.82-.23-.25-.15-.45-.35-.6-.61-.15-.26-.23-.54-.23-.84s.08-.59.23-.85c.15-.26.35-.46.6-.62.25-.15.53-.23.82-.23s.58.08.83.24c.25.16.43.37.54.61l.02-.82h.35v3.3h-.35l-.02-.8c-.11.24-.28.44-.54.6s-.53.24-.83.24ZM338.99,36.42c.24,0,.46-.06.66-.18.2-.12.37-.28.48-.48s.18-.42.18-.66-.06-.46-.18-.66c-.12-.2-.28-.36-.48-.48-.21-.12-.42-.18-.66-.18s-.46.06-.66.18c-.2.12-.36.28-.48.48-.12.2-.18.42-.18.66s.06.46.18.66c.12.2.28.36.48.48.2.12.42.18.66.18Z"/>
    <path class="cls-2" d="M341.85,33.06c-.07,0-.14-.03-.19-.08-.06-.05-.08-.12-.08-.2s.03-.14.08-.19c.05-.05.12-.08.19-.08s.13.03.19.08c.05.06.08.12.08.19,0,.08-.03.14-.08.2-.05.05-.12.08-.19.08ZM341.67,36.75v-3.3h.37v3.3h-.37Z"/>
    <path class="cls-2" d="M343.02,36.75v-4.68h.37v4.68h-.37Z"/>
    <path class="cls-2" d="M346.21,33.06c-.07,0-.13-.03-.19-.08s-.08-.12-.08-.2.03-.14.08-.19c.06-.05.12-.08.19-.08s.14.03.19.08c.05.06.08.12.08.19,0,.08-.03.14-.08.2-.05.05-.12.08-.19.08ZM346.03,36.75v-3.3h.37v3.3h-.37Z"/>
    <path class="cls-2" d="M347.38,36.75v-3.3h.35v.67c.11-.21.25-.38.45-.51.2-.13.43-.2.7-.2s.51.06.71.19c.21.12.37.31.49.56.12.25.18.55.18.92v1.67h-.37v-1.67c0-.29-.05-.53-.14-.72-.09-.19-.22-.34-.38-.43-.16-.1-.35-.14-.55-.14s-.38.05-.54.14-.29.24-.39.43c-.1.19-.14.44-.14.72v1.67h-.37Z"/>
    <path class="cls-2" d="M351.62,36.76h-.37v-2.96h-.42v-.34h.42v-.16c0-.31.04-.57.13-.76.09-.19.21-.33.37-.42s.33-.13.54-.13c.11,0,.23.02.35.06l-.1.34s-.02,0-.03,0-.02,0-.03,0c-.06-.01-.12-.02-.17-.02-.22,0-.39.07-.52.21-.12.14-.18.38-.18.73v.16h.92v.34h-.92v2.96Z"/>
    <path class="cls-2" d="M354.52,36.79c-.31,0-.59-.08-.85-.23-.26-.15-.46-.36-.62-.62-.15-.26-.22-.54-.22-.85s.07-.58.22-.84.36-.46.62-.61.54-.22.85-.22.58.07.84.22.46.35.61.61.23.54.23.84-.07.59-.23.85c-.15.26-.36.47-.61.62-.26.15-.54.23-.84.23ZM354.52,36.42c.23,0,.45-.06.65-.18.2-.12.36-.28.48-.48.12-.2.18-.42.18-.66s-.06-.45-.18-.65c-.12-.2-.28-.36-.48-.48-.2-.12-.42-.18-.65-.18s-.46.06-.66.18c-.2.12-.36.28-.48.48-.12.2-.18.42-.18.65s.06.46.18.66.28.36.48.48c.2.12.42.18.66.18Z"/>
    <path class="cls-2" d="M359.01,36.83c-.41,0-.79-.1-1.14-.31-.35-.2-.62-.48-.82-.83-.2-.35-.3-.72-.3-1.14s.1-.79.3-1.13c.2-.35.47-.62.82-.82.35-.2.73-.3,1.14-.3s.79.1,1.13.3c.35.2.62.48.82.82.2.35.3.72.3,1.13,0,.2-.04.41-.11.61s-.18.37-.31.5c-.14.13-.31.19-.52.19-.17,0-.31-.07-.42-.18-.12-.11-.18-.27-.2-.46-.1.12-.22.22-.36.3-.14.08-.3.11-.46.11-.19,0-.37-.05-.54-.15-.17-.1-.3-.23-.39-.4s-.14-.35-.14-.54.05-.38.14-.55.23-.3.39-.39c.17-.1.35-.14.54-.14.16,0,.32.04.46.11.14.07.26.17.35.29v-.41h.27v1.64c0,.16.04.28.11.37s.16.14.27.14c.16,0,.29-.05.39-.17.1-.12.17-.26.22-.42.04-.16.07-.32.07-.46,0-.36-.09-.69-.27-1-.18-.31-.42-.55-.73-.73-.3-.18-.64-.27-1.01-.27s-.71.09-1.02.27c-.31.18-.55.43-.73.73s-.27.64-.27,1,.09.71.27,1.02c.18.31.43.55.74.73.31.18.64.27,1.01.27.19,0,.38-.03.58-.08l.06.23c-.2.06-.41.1-.64.1ZM358.88,35.35c.14,0,.27-.04.4-.11.12-.07.22-.17.29-.29.07-.12.11-.25.11-.39s-.04-.28-.11-.4c-.07-.12-.17-.22-.29-.29-.12-.07-.26-.1-.4-.1s-.28.04-.4.1c-.12.07-.22.17-.29.29-.07.12-.1.26-.1.4s.04.27.1.39c.07.12.17.22.29.29.12.07.26.11.4.11Z"/>
    <path class="cls-2" d="M361.98,36.75v-4.68h.36v3.08l1.74-1.7h.47l-1.29,1.29,1.49,2.01h-.45l-1.3-1.74-.67.65v1.09h-.36Z"/>
    <path class="cls-2" d="M366.57,36.79c-.3,0-.58-.08-.83-.23-.25-.15-.45-.35-.6-.61-.15-.26-.22-.54-.22-.84s.07-.59.22-.85.35-.46.6-.62c.25-.15.53-.23.83-.23s.58.08.83.24c.25.16.43.37.54.61l.02-.82h.35v3.3h-.35l-.02-.8c-.1.24-.28.44-.54.6s-.53.24-.83.24ZM366.61,36.42c.24,0,.46-.06.66-.18.21-.12.37-.28.48-.48.12-.2.18-.42.18-.66s-.06-.46-.18-.66c-.12-.2-.28-.36-.48-.48-.2-.12-.42-.18-.66-.18s-.46.06-.66.18c-.2.12-.36.28-.48.48-.12.2-.18.42-.18.66s.06.46.18.66c.12.2.28.36.48.48.2.12.42.18.66.18Z"/>
    <path class="cls-2" d="M370.71,36.79c-.3,0-.57-.08-.82-.23-.25-.15-.45-.35-.6-.61-.15-.26-.23-.54-.23-.84s.08-.59.23-.85c.15-.26.35-.46.6-.62.25-.15.53-.23.82-.23s.58.08.83.24c.25.16.43.37.54.61l.02-.82h.35v3.3h-.35l-.02-.8c-.11.24-.28.44-.54.6s-.53.24-.83.24ZM370.75,36.42c.24,0,.46-.06.66-.18.2-.12.37-.28.48-.48s.18-.42.18-.66-.06-.46-.18-.66c-.12-.2-.28-.36-.48-.48-.21-.12-.42-.18-.66-.18s-.46.06-.66.18c-.2.12-.36.28-.48.48-.12.2-.18.42-.18.66s.06.46.18.66c.12.2.28.36.48.48.2.12.42.18.66.18Z"/>
    <path class="cls-2" d="M373.89,36.76h-.37v-2.96h-.42v-.34h.42v-.16c0-.31.04-.57.13-.76.09-.19.21-.33.37-.42s.33-.13.54-.13c.11,0,.23.02.35.06l-.1.34s-.02,0-.03,0-.02,0-.03,0c-.06-.01-.12-.02-.17-.02-.22,0-.4.07-.52.21-.12.14-.18.38-.18.73v.16h.92v.34h-.92v2.96Z"/>
    <path class="cls-2" d="M375.46,36.77c-.07,0-.13-.03-.19-.08-.05-.05-.08-.12-.08-.19,0-.08.03-.14.08-.19.05-.05.12-.08.19-.08s.13.03.19.08c.05.05.08.12.08.19s-.03.13-.08.19c-.05.05-.11.08-.19.08Z"/>
    <path class="cls-2" d="M378.17,36.79c-.3,0-.58-.08-.83-.24-.25-.16-.43-.36-.54-.6v.8h-.36v-4.68h.37v2.19c.11-.24.29-.45.54-.61.25-.16.53-.24.83-.24s.57.08.82.23c.25.15.45.36.6.62.15.26.22.54.22.85s-.08.58-.22.84c-.15.26-.35.46-.6.61-.25.15-.53.23-.82.23ZM378.13,36.42c.24,0,.46-.06.66-.18.2-.12.36-.28.48-.48.12-.2.18-.42.18-.66s-.06-.46-.18-.66c-.12-.2-.28-.36-.48-.48-.2-.12-.42-.18-.66-.18s-.46.06-.66.18-.36.28-.48.48c-.12.2-.18.42-.18.66s.06.46.18.66c.12.2.28.36.48.48.2.12.42.18.66.18Z"/>
    <path class="cls-2" d="M380.53,36.75v-4.68h.37v2.05c.1-.21.24-.38.44-.51.2-.13.43-.19.7-.19s.51.06.71.19c.21.12.37.31.49.56.12.25.18.55.18.92v1.67h-.37v-1.67c0-.29-.05-.53-.14-.72-.09-.19-.22-.34-.38-.43-.16-.1-.35-.14-.55-.14s-.38.05-.54.14-.29.24-.39.43c-.1.19-.14.44-.14.72v1.67h-.37Z"/>
  </g>
  <line class="cls-4" x1="94.7" y1="6" x2="94.7" y2="39.9"/>
  <rect class="cls-2" x="19.4" y="7.96" width="30.78" height="30.78" rx="6.89" ry="6.89"/>
  <path class="cls-1" d="M22.47,11.04v.99h.99v-.99h-.99ZM22.47,12.02v.99h.99v-.99h-.99ZM22.47,13.01v.99h.99v-.99h-.99ZM22.47,13.99v.99h.99v-.99h-.99ZM22.47,14.98v.99h.99v-.99h-.99ZM22.47,15.96v.99h.99v-.99h-.99ZM22.47,16.95v.99h.99v-.99h-.99ZM22.47,18.92v.99h.99v-.99h-.99ZM22.47,19.91v.99h.99v-.99h-.99ZM22.47,21.88v.99h.99v-.99h-.99ZM22.47,23.85v.99h.99v-.99h-.99ZM22.47,28.78v.99h.99v-.99h-.99ZM22.47,29.76v.99h.99v-.99h-.99ZM22.47,30.75v.99h.99v-.99h-.99ZM22.47,31.73v.99h.99v-.99h-.99ZM22.47,32.72v.99h.99v-.99h-.99ZM22.47,33.7v.99h.99v-.99h-.99ZM22.47,34.69v.99h.99v-.99h-.99ZM23.46,11.04v.99h.99v-.99h-.99ZM23.46,16.95v.99h.99v-.99h-.99ZM23.46,18.92v.99h.99v-.99h-.99ZM23.46,20.89v.99h.99v-.99h-.99ZM23.46,21.88v.99h.99v-.99h-.99ZM23.46,22.86v.99h.99v-.99h-.99ZM23.46,23.85v.99h.99v-.99h-.99ZM23.46,26.8v.99h.99v-.99h-.99ZM23.46,28.78v.99h.99v-.99h-.99ZM23.46,34.69v.99h.99v-.99h-.99ZM24.45,11.04v.99h.99v-.99h-.99ZM24.45,13.01v.99h.99v-.99h-.99ZM24.45,13.99v.99h.99v-.99h-.99ZM24.45,14.98v.99h.99v-.99h-.99ZM24.45,16.95v.99h.99v-.99h-.99ZM24.45,18.92v.99h.99v-.99h-.99ZM24.45,21.88v.99h.99v-.99h-.99ZM24.45,22.86v.99h.99v-.99h-.99ZM24.45,23.85v.99h.99v-.99h-.99ZM24.45,28.78v.99h.99v-.99h-.99ZM24.45,30.75v.99h.99v-.99h-.99ZM24.45,31.73v.99h.99v-.99h-.99ZM24.45,32.72v.99h.99v-.99h-.99ZM24.45,34.69v.99h.99v-.99h-.99ZM25.43,11.04v.99h.99v-.99h-.99ZM25.43,13.01v.99h.99v-.99h-.99ZM25.43,13.99v.99h.99v-.99h-.99ZM25.43,14.98v.99h.99v-.99h-.99ZM25.43,16.95v.99h.99v-.99h-.99ZM25.43,19.91v.99h.99v-.99h-.99ZM25.43,21.88v.99h.99v-.99h-.99ZM25.43,23.85v.99h.99v-.99h-.99ZM25.43,25.82v.99h.99v-.99h-.99ZM25.43,26.8v.99h.99v-.99h-.99ZM25.43,28.78v.99h.99v-.99h-.99ZM25.43,30.75v.99h.99v-.99h-.99ZM25.43,31.73v.99h.99v-.99h-.99ZM25.43,32.72v.99h.99v-.99h-.99ZM25.43,34.69v.99h.99v-.99h-.99ZM26.42,11.04v.99h.99v-.99h-.99ZM26.42,13.01v.99h.99v-.99h-.99ZM26.42,13.99v.99h.99v-.99h-.99ZM26.42,14.98v.99h.99v-.99h-.99ZM26.42,16.95v.99h.99v-.99h-.99ZM26.42,18.92v.99h.99v-.99h-.99ZM26.42,21.88v.99h.99v-.99h-.99ZM26.42,22.86v.99h.99v-.99h-.99ZM26.42,24.83v.99h.99v-.99h-.99ZM26.42,28.78v.99h.99v-.99h-.99ZM26.42,30.75v.99h.99v-.99h-.99ZM26.42,31.73v.99h.99v-.99h-.99ZM26.42,32.72v.99h.99v-.99h-.99ZM26.42,34.69v.99h.99v-.99h-.99ZM27.4,11.04v.99h.99v-.99h-.99ZM27.4,16.95v.99h.99v-.99h-.99ZM27.4,19.91v.99h.99v-.99h-.99ZM27.4,21.88v.99h.99v-.99h-.99ZM27.4,22.86v.99h.99v-.99h-.99ZM27.4,24.83v.99h.99v-.99h-.99ZM27.4,26.8v.99h.99v-.99h-.99ZM27.4,28.78v.99h.99v-.99h-.99ZM27.4,34.69v.99h.99v-.99h-.99ZM28.39,11.04v.99h.99v-.99h-.99ZM28.39,12.02v.99h.99v-.99h-.99ZM28.39,13.01v.99h.99v-.99h-.99ZM28.39,13.99v.99h.99v-.99h-.99ZM28.39,14.98v.99h.99v-.99h-.99ZM28.39,15.96v.99h.99v-.99h-.99ZM28.39,16.95v.99h.99v-.99h-.99ZM28.39,18.92v.99h.99v-.99h-.99ZM28.39,20.89v.99h.99v-.99h-.99ZM28.39,22.86v.99h.99v-.99h-.99ZM28.39,24.83v.99h.99v-.99h-.99ZM28.39,26.8v.99h.99v-.99h-.99ZM28.39,28.78v.99h.99v-.99h-.99ZM28.39,29.76v.99h.99v-.99h-.99ZM28.39,30.75v.99h.99v-.99h-.99ZM28.39,31.73v.99h.99v-.99h-.99ZM28.39,32.72v.99h.99v-.99h-.99ZM28.39,33.7v.99h.99v-.99h-.99ZM28.39,34.69v.99h.99v-.99h-.99ZM29.37,21.88v.99h.99v-.99h-.99ZM29.37,22.86v.99h.99v-.99h-.99ZM29.37,23.85v.99h.99v-.99h-.99ZM29.37,26.8v.99h.99v-.99h-.99ZM30.36,11.04v.99h.99v-.99h-.99ZM30.36,13.99v.99h.99v-.99h-.99ZM30.36,14.98v.99h.99v-.99h-.99ZM30.36,15.96v.99h.99v-.99h-.99ZM30.36,16.95v.99h.99v-.99h-.99ZM30.36,17.93v.99h.99v-.99h-.99ZM30.36,18.92v.99h.99v-.99h-.99ZM30.36,20.89v.99h.99v-.99h-.99ZM30.36,24.83v.99h.99v-.99h-.99ZM30.36,25.82v.99h.99v-.99h-.99ZM30.36,27.79v.99h.99v-.99h-.99ZM30.36,30.75v.99h.99v-.99h-.99ZM30.36,32.72v.99h.99v-.99h-.99ZM30.36,33.7v.99h.99v-.99h-.99ZM30.36,34.69v.99h.99v-.99h-.99ZM31.34,11.04v.99h.99v-.99h-.99ZM31.34,13.01v.99h.99v-.99h-.99ZM31.34,17.93v.99h.99v-.99h-.99ZM31.34,25.82v.99h.99v-.99h-.99ZM31.34,29.76v.99h.99v-.99h-.99ZM31.34,30.75v.99h.99v-.99h-.99ZM31.34,31.73v.99h.99v-.99h-.99ZM31.34,32.72v.99h.99v-.99h-.99ZM31.34,33.7v.99h.99v-.99h-.99ZM32.33,11.04v.99h.99v-.99h-.99ZM32.33,16.95v.99h.99v-.99h-.99ZM32.33,17.93v.99h.99v-.99h-.99ZM32.33,22.86v.99h.99v-.99h-.99ZM32.33,23.85v.99h.99v-.99h-.99ZM32.33,24.83v.99h.99v-.99h-.99ZM32.33,25.82v.99h.99v-.99h-.99ZM32.33,26.8v.99h.99v-.99h-.99ZM32.33,27.79v.99h.99v-.99h-.99ZM32.33,28.78v.99h.99v-.99h-.99ZM32.33,29.76v.99h.99v-.99h-.99ZM32.33,31.73v.99h.99v-.99h-.99ZM32.33,34.69v.99h.99v-.99h-.99ZM33.32,11.04v.99h.99v-.99h-.99ZM33.32,12.02v.99h.99v-.99h-.99ZM33.32,13.01v.99h.99v-.99h-.99ZM33.32,13.99v.99h.99v-.99h-.99ZM33.32,15.96v.99h.99v-.99h-.99ZM33.32,18.92v.99h.99v-.99h-.99ZM33.32,19.91v.99h.99v-.99h-.99ZM33.32,21.88v.99h.99v-.99h-.99ZM33.32,22.86v.99h.99v-.99h-.99ZM33.32,28.78v.99h.99v-.99h-.99ZM33.32,30.75v.99h.99v-.99h-.99ZM33.32,31.73v.99h.99v-.99h-.99ZM33.32,32.72v.99h.99v-.99h-.99ZM33.32,33.7v.99h.99v-.99h-.99ZM33.32,34.69v.99h.99v-.99h-.99ZM34.3,11.04v.99h.99v-.99h-.99ZM34.3,16.95v.99h.99v-.99h-.99ZM34.3,17.93v.99h.99v-.99h-.99ZM34.3,18.92v.99h.99v-.99h-.99ZM34.3,19.91v.99h.99v-.99h-.99ZM34.3,20.89v.99h.99v-.99h-.99ZM34.3,21.88v.99h.99v-.99h-.99ZM34.3,25.82v.99h.99v-.99h-.99ZM34.3,26.8v.99h.99v-.99h-.99ZM34.3,28.78v.99h.99v-.99h-.99ZM34.3,29.76v.99h.99v-.99h-.99ZM34.3,34.69v.99h.99v-.99h-.99ZM35.29,11.04v.99h.99v-.99h-.99ZM35.29,13.01v.99h.99v-.99h-.99ZM35.29,15.96v.99h.99v-.99h-.99ZM35.29,17.93v.99h.99v-.99h-.99ZM35.29,18.92v.99h.99v-.99h-.99ZM35.29,19.91v.99h.99v-.99h-.99ZM35.29,22.86v.99h.99v-.99h-.99ZM35.29,24.83v.99h.99v-.99h-.99ZM35.29,25.82v.99h.99v-.99h-.99ZM35.29,26.8v.99h.99v-.99h-.99ZM35.29,30.75v.99h.99v-.99h-.99ZM35.29,33.7v.99h.99v-.99h-.99ZM36.27,11.04v.99h.99v-.99h-.99ZM36.27,12.02v.99h.99v-.99h-.99ZM36.27,13.01v.99h.99v-.99h-.99ZM36.27,15.96v.99h.99v-.99h-.99ZM36.27,16.95v.99h.99v-.99h-.99ZM36.27,19.91v.99h.99v-.99h-.99ZM36.27,23.85v.99h.99v-.99h-.99ZM36.27,24.83v.99h.99v-.99h-.99ZM36.27,25.82v.99h.99v-.99h-.99ZM36.27,26.8v.99h.99v-.99h-.99ZM36.27,28.78v.99h.99v-.99h-.99ZM36.27,30.75v.99h.99v-.99h-.99ZM36.27,31.73v.99h.99v-.99h-.99ZM36.27,32.72v.99h.99v-.99h-.99ZM36.27,33.7v.99h.99v-.99h-.99ZM36.27,34.69v.99h.99v-.99h-.99ZM37.26,11.04v.99h.99v-.99h-.99ZM37.26,13.01v.99h.99v-.99h-.99ZM37.26,13.99v.99h.99v-.99h-.99ZM37.26,14.98v.99h.99v-.99h-.99ZM37.26,15.96v.99h.99v-.99h-.99ZM37.26,17.93v.99h.99v-.99h-.99ZM37.26,18.92v.99h.99v-.99h-.99ZM37.26,19.91v.99h.99v-.99h-.99ZM37.26,20.89v.99h.99v-.99h-.99ZM37.26,22.86v.99h.99v-.99h-.99ZM37.26,25.82v.99h.99v-.99h-.99ZM37.26,27.79v.99h.99v-.99h-.99ZM37.26,28.78v.99h.99v-.99h-.99ZM37.26,29.76v.99h.99v-.99h-.99ZM37.26,31.73v.99h.99v-.99h-.99ZM37.26,32.72v.99h.99v-.99h-.99ZM37.26,34.69v.99h.99v-.99h-.99ZM38.24,11.04v.99h.99v-.99h-.99ZM38.24,13.99v.99h.99v-.99h-.99ZM38.24,14.98v.99h.99v-.99h-.99ZM38.24,15.96v.99h.99v-.99h-.99ZM38.24,16.95v.99h.99v-.99h-.99ZM38.24,17.93v.99h.99v-.99h-.99ZM38.24,18.92v.99h.99v-.99h-.99ZM38.24,20.89v.99h.99v-.99h-.99ZM38.24,21.88v.99h.99v-.99h-.99ZM38.24,22.86v.99h.99v-.99h-.99ZM38.24,23.85v.99h.99v-.99h-.99ZM38.24,26.8v.99h.99v-.99h-.99ZM38.24,27.79v.99h.99v-.99h-.99ZM38.24,28.78v.99h.99v-.99h-.99ZM38.24,29.76v.99h.99v-.99h-.99ZM38.24,30.75v.99h.99v-.99h-.99ZM38.24,32.72v.99h.99v-.99h-.99ZM38.24,33.7v.99h.99v-.99h-.99ZM39.23,18.92v.99h.99v-.99h-.99ZM39.23,19.91v.99h.99v-.99h-.99ZM39.23,21.88v.99h.99v-.99h-.99ZM39.23,24.83v.99h.99v-.99h-.99ZM39.23,26.8v.99h.99v-.99h-.99ZM39.23,30.75v.99h.99v-.99h-.99ZM39.23,32.72v.99h.99v-.99h-.99ZM39.23,33.7v.99h.99v-.99h-.99ZM40.22,11.04v.99h.99v-.99h-.99ZM40.22,12.02v.99h.99v-.99h-.99ZM40.22,13.01v.99h.99v-.99h-.99ZM40.22,13.99v.99h.99v-.99h-.99ZM40.22,14.98v.99h.99v-.99h-.99ZM40.22,15.96v.99h.99v-.99h-.99ZM40.22,16.95v.99h.99v-.99h-.99ZM40.22,18.92v.99h.99v-.99h-.99ZM40.22,22.86v.99h.99v-.99h-.99ZM40.22,24.83v.99h.99v-.99h-.99ZM40.22,26.8v.99h.99v-.99h-.99ZM40.22,28.78v.99h.99v-.99h-.99ZM40.22,30.75v.99h.99v-.99h-.99ZM40.22,34.69v.99h.99v-.99h-.99ZM41.2,11.04v.99h.99v-.99h-.99ZM41.2,16.95v.99h.99v-.99h-.99ZM41.2,18.92v.99h.99v-.99h-.99ZM41.2,20.89v.99h.99v-.99h-.99ZM41.2,21.88v.99h.99v-.99h-.99ZM41.2,23.85v.99h.99v-.99h-.99ZM41.2,25.82v.99h.99v-.99h-.99ZM41.2,26.8v.99h.99v-.99h-.99ZM41.2,30.75v.99h.99v-.99h-.99ZM42.19,11.04v.99h.99v-.99h-.99ZM42.19,13.01v.99h.99v-.99h-.99ZM42.19,13.99v.99h.99v-.99h-.99ZM42.19,14.98v.99h.99v-.99h-.99ZM42.19,16.95v.99h.99v-.99h-.99ZM42.19,18.92v.99h.99v-.99h-.99ZM42.19,20.89v.99h.99v-.99h-.99ZM42.19,21.88v.99h.99v-.99h-.99ZM42.19,23.85v.99h.99v-.99h-.99ZM42.19,25.82v.99h.99v-.99h-.99ZM42.19,26.8v.99h.99v-.99h-.99ZM42.19,27.79v.99h.99v-.99h-.99ZM42.19,28.78v.99h.99v-.99h-.99ZM42.19,29.76v.99h.99v-.99h-.99ZM42.19,30.75v.99h.99v-.99h-.99ZM42.19,33.7v.99h.99v-.99h-.99ZM42.19,34.69v.99h.99v-.99h-.99ZM43.17,11.04v.99h.99v-.99h-.99ZM43.17,13.01v.99h.99v-.99h-.99ZM43.17,13.99v.99h.99v-.99h-.99ZM43.17,14.98v.99h.99v-.99h-.99ZM43.17,16.95v.99h.99v-.99h-.99ZM43.17,18.92v.99h.99v-.99h-.99ZM43.17,19.91v.99h.99v-.99h-.99ZM43.17,20.89v.99h.99v-.99h-.99ZM43.17,22.86v.99h.99v-.99h-.99ZM43.17,23.85v.99h.99v-.99h-.99ZM43.17,24.83v.99h.99v-.99h-.99ZM43.17,27.79v.99h.99v-.99h-.99ZM43.17,28.78v.99h.99v-.99h-.99ZM43.17,33.7v.99h.99v-.99h-.99ZM43.17,34.69v.99h.99v-.99h-.99ZM44.16,11.04v.99h.99v-.99h-.99ZM44.16,13.01v.99h.99v-.99h-.99ZM44.16,13.99v.99h.99v-.99h-.99ZM44.16,14.98v.99h.99v-.99h-.99ZM44.16,16.95v.99h.99v-.99h-.99ZM44.16,19.91v.99h.99v-.99h-.99ZM44.16,21.88v.99h.99v-.99h-.99ZM44.16,23.85v.99h.99v-.99h-.99ZM44.16,26.8v.99h.99v-.99h-.99ZM44.16,27.79v.99h.99v-.99h-.99ZM44.16,30.75v.99h.99v-.99h-.99ZM44.16,31.73v.99h.99v-.99h-.99ZM44.16,32.72v.99h.99v-.99h-.99ZM44.16,33.7v.99h.99v-.99h-.99ZM44.16,34.69v.99h.99v-.99h-.99ZM45.14,11.04v.99h.99v-.99h-.99ZM45.14,16.95v.99h.99v-.99h-.99ZM45.14,21.88v.99h.99v-.99h-.99ZM45.14,22.86v.99h.99v-.99h-.99ZM45.14,23.85v.99h.99v-.99h-.99ZM45.14,28.78v.99h.99v-.99h-.99ZM45.14,29.76v.99h.99v-.99h-.99ZM45.14,30.75v.99h.99v-.99h-.99ZM45.14,32.72v.99h.99v-.99h-.99ZM45.14,33.7v.99h.99v-.99h-.99ZM45.14,34.69v.99h.99v-.99h-.99ZM46.13,11.04v.99h.99v-.99h-.99ZM46.13,12.02v.99h.99v-.99h-.99ZM46.13,13.01v.99h.99v-.99h-.99ZM46.13,13.99v.99h.99v-.99h-.99ZM46.13,14.98v.99h.99v-.99h-.99ZM46.13,15.96v.99h.99v-.99h-.99ZM46.13,16.95v.99h.99v-.99h-.99ZM46.13,18.92v.99h.99v-.99h-.99ZM46.13,20.89v.99h.99v-.99h-.99ZM46.13,21.88v.99h.99v-.99h-.99ZM46.13,22.86v.99h.99v-.99h-.99ZM46.13,23.85v.99h.99v-.99h-.99ZM46.13,25.82v.99h.99v-.99h-.99ZM46.13,26.8v.99h.99v-.99h-.99ZM46.13,27.79v.99h.99v-.99h-.99ZM46.13,31.73v.99h.99v-.99h-.99ZM46.13,34.69v.99h.99v-.99h-.99Z" shape-rendering="geometricPrecision"/>
</svg>