<?xml version="1.0" encoding="UTF-8"?>
<svg id="Layer_1" data-name="Layer 1" xmlns="http://www.w3.org/2000/svg" version="1.1" xmlns:xlink="http://www.w3.org/1999/xlink" viewBox="0 0 595.28 96.82">
  <defs>
    <style>
      .cls-1 {
        fill: #5c0f8b;
      }

      .cls-1, .cls-2, .cls-3, .cls-4 {
        stroke-width: 0px;
      }

      .cls-2 {
        fill: none;
      }

      .cls-5 {
        font-family: MadaniArabic-Light, 'Madani Arabic';
        font-size: 9.65px;
        font-weight: 300;
      }

      .cls-5, .cls-3 {
        fill: #aca199;
      }

      .cls-6 {
        clip-path: url(#clippath);
      }

      .cls-4 {
        fill: #64327e;
      }
    </style>
    <clipPath id="clippath">
      <rect class="cls-2" x="461.14" y="2.95" width="131.27" height="93.87"/>
    </clipPath>
  </defs>
  <g>
    <path class="cls-4" d="M37.47,45.51c-1.67,0-3.17-.39-4.49-1.17-1.32-.78-2.36-1.89-3.12-3.33-.76-1.44-1.14-3.1-1.14-4.96v-11.09h4.79v11.09c0,1.5.36,2.67,1.07,3.51.71.85,1.68,1.27,2.89,1.27s2.21-.42,2.92-1.27c.71-.85,1.07-2.02,1.07-3.51v-14.35h4.78v3.55c1.14-1.06,2.37-1.92,3.68-2.57,1.31-.65,2.69-.98,4.14-.98,1.56,0,2.96.36,4.19,1.09,1.23.73,2.19,1.75,2.89,3.06.69,1.31,1.04,2.79,1.04,4.44v.85c0,.69.14,1.23.41,1.59.27.37.71.55,1.3.55h.92v4.68h-.92c-.95,0-1.75-.17-2.41-.52-.66-.35-1.24-.85-1.75-1.5-.53.65-1.18,1.15-1.95,1.5-.77.35-1.62.52-2.54.52h-9.17c-.24,1.52-.75,2.85-1.53,3.99-.78,1.14-1.78,2.02-3,2.64-1.22.62-2.58.93-4.08.93ZM55.25,33.28c.64,0,1.15-.2,1.55-.6.4-.4.59-.98.59-1.74v-.59c0-.8-.15-1.5-.45-2.1-.3-.6-.74-1.06-1.34-1.38-.59-.33-1.3-.49-2.11-.49-1.12,0-2.32.39-3.58,1.15-1.27.77-2.49,1.78-3.68,3.04v2.7h9.01ZM51.89,20.3c-.75,0-1.38-.26-1.9-.78-.52-.52-.78-1.14-.78-1.85s.26-1.36.78-1.87c.52-.51,1.15-.76,1.9-.76s1.35.26,1.88.76c.53.51.79,1.13.79,1.87s-.26,1.33-.79,1.85c-.53.52-1.15.78-1.88.78Z"/>
    <path class="cls-4" d="M64.16,37.97v-4.68h.96c.62,0,1.08-.21,1.4-.62.32-.41.48-.98.48-1.69v-9.27h4.79v9.27c0,.72.17,1.28.5,1.69.33.41.8.62,1.42.62h.96v4.68h-.96c-1.83,0-3.26-.64-4.29-1.92-1.03,1.28-2.46,1.92-4.29,1.92h-.96ZM69.34,45.19c-.75,0-1.38-.25-1.9-.76-.52-.51-.78-1.13-.78-1.87s.26-1.36.78-1.87c.52-.51,1.15-.76,1.9-.76s1.35.26,1.88.78.79,1.14.79,1.85-.26,1.33-.79,1.85-1.15.78-1.88.78Z"/>
    <path class="cls-4" d="M74,37.97v-4.68h4.12c-.62-.54-1.09-1.19-1.44-1.94-.34-.75-.51-1.54-.51-2.39,0-1.3.33-2.5,1.01-3.61.67-1.11,1.61-1.99,2.81-2.65,1.2-.66,2.54-.99,4.01-.99,1.56,0,2.97.37,4.22,1.11s2.24,1.76,2.95,3.06c.71,1.3,1.07,2.77,1.07,4.39v7.71h-18.25ZM80.56,19.88c-.68,0-1.28-.25-1.78-.75-.51-.5-.76-1.08-.76-1.76,0-.72.25-1.32.76-1.81.51-.49,1.1-.73,1.78-.73s1.31.25,1.81.75.76,1.1.76,1.79-.25,1.26-.76,1.76c-.51.5-1.11.75-1.81.75ZM84,33.28h3.5v-3.45c0-.63-.16-1.2-.48-1.72-.32-.52-.74-.94-1.27-1.25-.53-.31-1.11-.47-1.75-.47s-1.22.16-1.75.47c-.53.31-.95.73-1.25,1.25-.31.52-.46,1.1-.46,1.72s.15,1.2.46,1.72c.31.52.73.94,1.25,1.25.53.31,1.11.47,1.75.47ZM87.43,19.88c-.68,0-1.28-.25-1.78-.75-.51-.5-.76-1.08-.76-1.76,0-.72.25-1.32.76-1.81.51-.49,1.1-.73,1.78-.73s1.31.25,1.81.75c.51.5.76,1.1.76,1.79s-.25,1.26-.76,1.76c-.51.5-1.11.75-1.81.75Z"/>
    <path class="cls-4" d="M103.53,37.97v-4.68h9.6v-3.12c0-.74-.15-1.39-.45-1.97s-.71-1.02-1.24-1.33c-.53-.31-1.12-.47-1.78-.47-.48,0-.92.06-1.32.2-.4.13-.8.3-1.22.52-.02,0-.03,0-.03.02s-.01.02-.03.02l-1.88-4.13c1.36-.87,2.86-1.3,4.49-1.3,1.52,0,2.91.37,4.17,1.11s2.26,1.75,2.99,3.04c.73,1.29,1.09,2.73,1.09,4.31v3.12h2.41v4.68h-16.8Z"/>
    <path class="cls-4" d="M119.67,37.97v-4.68h1.06c.59,0,1.06-.21,1.4-.62.34-.41.51-.98.51-1.69v-9.27h4.75v9.27c0,.72.17,1.28.51,1.69.34.41.82.62,1.44.62h1.02v4.68h-1.02c-1.85,0-3.29-.64-4.32-1.92-1.03,1.28-2.46,1.92-4.29,1.92h-1.06ZM125.05,20.3c-.75,0-1.38-.26-1.9-.78-.52-.52-.78-1.14-.78-1.85s.26-1.36.78-1.87c.52-.51,1.15-.76,1.9-.76s1.35.26,1.88.76c.53.51.79,1.13.79,1.87s-.26,1.33-.79,1.85c-.53.52-1.16.78-1.88.78Z"/>
    <path class="cls-4" d="M129.7,37.97v-4.68h1.06c.59,0,1.06-.21,1.4-.62.34-.41.51-.98.51-1.69v-9.27h4.75v9.04c0,.8.2,1.43.61,1.87.41.44.93.67,1.57.67s1.13-.22,1.53-.67c.41-.44.61-1.07.61-1.87v-9.04h4.79v9.04c0,.8.21,1.43.63,1.87.42.44.94.67,1.55.67s1.13-.22,1.55-.67c.42-.44.63-1.07.63-1.87v-9.04h4.75v9.04c0,1.39-.31,2.63-.92,3.73-.62,1.1-1.45,1.95-2.51,2.57-1.06.62-2.22.93-3.5.93-.97,0-1.84-.18-2.62-.55-.78-.37-1.42-.91-1.93-1.63-.53.72-1.18,1.26-1.96,1.63-.78.37-1.65.55-2.59.55s-1.8-.17-2.56-.52c-.76-.35-1.41-.85-1.96-1.5-.99,1.35-2.43,2.02-4.32,2.02h-1.06Z"/>
  </g>
  <g>
    <path class="cls-4" d="M28.77,80.25v-23.75h9.27c1.72,0,3.23.35,4.54,1.04,1.31.69,2.31,1.64,3.02,2.83.7,1.19,1.06,2.5,1.06,3.94,0,1.02-.19,1.98-.56,2.88-.37.9-.91,1.69-1.6,2.38s-1.5,1.21-2.43,1.58l5.05,9.11h-5.94l-4.29-8.1h-2.9v8.1h-5.21ZM37.94,67.14c.68,0,1.28-.12,1.78-.37.51-.25.9-.59,1.17-1.01.27-.42.41-.91.41-1.45s-.14-1-.41-1.43c-.28-.43-.67-.77-1.17-1.01-.51-.24-1.1-.36-1.78-.36h-3.96v5.63h3.96Z"/>
    <path class="cls-4" d="M57.61,80.54c-1.85,0-3.51-.41-5-1.24s-2.65-1.94-3.48-3.35c-.84-1.41-1.25-2.96-1.25-4.65s.42-3.18,1.25-4.59c.84-1.41,1.96-2.53,3.38-3.37,1.42-.83,2.98-1.25,4.67-1.25s3.28.42,4.69,1.25c1.41.84,2.52,1.96,3.35,3.37.83,1.41,1.24,2.94,1.24,4.59,0,.5-.04,1.13-.13,1.89h-13.2c.18.56.47,1.06.89,1.5.42.43.94.78,1.57,1.02s1.3.37,2.03.37c.92,0,1.71-.12,2.36-.37s1.22-.62,1.7-1.12l3.86,2.41c-.86,1.08-2.01,1.95-3.45,2.59-1.44.64-2.93.96-4.47.96ZM61.41,69.39c-.09-.5-.32-.96-.69-1.4-.37-.43-.86-.78-1.47-1.04-.61-.26-1.28-.39-2.03-.39s-1.38.13-1.96.39c-.58.26-1.06.61-1.42,1.04-.36.43-.59.9-.68,1.4h8.25Z"/>
    <path class="cls-4" d="M77.78,80.54c-1.69,0-3.26-.41-4.69-1.24-1.43-.82-2.56-1.95-3.4-3.37-.84-1.42-1.25-2.97-1.25-4.64s.42-3.18,1.25-4.59c.84-1.41,1.97-2.53,3.4-3.37,1.43-.83,2.99-1.25,4.69-1.25,1.54,0,2.98.35,4.32,1.06,1.34.71,2.45,1.65,3.33,2.85l-4.03,2.64c-.42-.5-.95-.89-1.58-1.19-.64-.29-1.32-.44-2.05-.44-.81,0-1.55.19-2.21.57-.66.38-1.19.9-1.58,1.56-.4.66-.59,1.38-.59,2.16s.2,1.53.59,2.2c.4.66.92,1.19,1.58,1.58.66.39,1.4.59,2.21.59.77,0,1.48-.16,2.15-.49.66-.33,1.19-.78,1.58-1.37l4.03,2.67c-.86,1.26-1.97,2.25-3.33,2.98-1.36.73-2.84,1.09-4.42,1.09Z"/>
    <path class="cls-4" d="M96.72,80.54c-1.85,0-3.51-.41-5-1.24s-2.65-1.94-3.48-3.35c-.84-1.41-1.25-2.96-1.25-4.65s.42-3.18,1.25-4.59c.84-1.41,1.96-2.53,3.38-3.37,1.42-.83,2.98-1.25,4.67-1.25s3.28.42,4.69,1.25c1.41.84,2.52,1.96,3.35,3.37.83,1.41,1.24,2.94,1.24,4.59,0,.5-.04,1.13-.13,1.89h-13.2c.18.56.47,1.06.89,1.5.42.43.94.78,1.57,1.02s1.3.37,2.03.37c.92,0,1.71-.12,2.36-.37s1.22-.62,1.7-1.12l3.86,2.41c-.86,1.08-2.01,1.95-3.45,2.59-1.44.64-2.93.96-4.47.96ZM100.51,69.39c-.09-.5-.32-.96-.69-1.4-.37-.43-.86-.78-1.47-1.04-.61-.26-1.28-.39-2.03-.39s-1.38.13-1.96.39c-.58.26-1.06.61-1.42,1.04-.36.43-.59.9-.68,1.4h8.25Z"/>
    <path class="cls-4" d="M110.88,60.99c-.75,0-1.4-.27-1.95-.8-.55-.53-.83-1.18-.83-1.94s.27-1.38.83-1.92c.55-.54,1.2-.81,1.95-.81s1.4.27,1.95.81c.55.54.83,1.18.83,1.92s-.28,1.4-.83,1.94c-.55.53-1.2.8-1.95.8ZM108.43,80.25v-17.89h4.88v17.89h-4.88Z"/>
    <path class="cls-4" d="M117.05,87.41v-25.05h4.42l.3,2.86c.55-.91,1.33-1.66,2.34-2.24,1.01-.59,2.11-.88,3.3-.88,1.54,0,2.96.42,4.27,1.25,1.31.84,2.35,1.96,3.12,3.37.77,1.41,1.16,2.94,1.16,4.59s-.39,3.22-1.16,4.64c-.77,1.42-1.81,2.54-3.12,3.37-1.31.82-2.73,1.24-4.27,1.24-1.17,0-2.24-.27-3.22-.81s-1.73-1.26-2.26-2.15v9.82h-4.88ZM126.48,75.83c.84,0,1.6-.2,2.28-.6.68-.4,1.23-.95,1.63-1.64.41-.69.61-1.45.61-2.28s-.2-1.58-.61-2.26c-.41-.68-.95-1.23-1.63-1.63-.68-.4-1.44-.6-2.28-.6s-1.57.2-2.28.6c-.7.4-1.26.94-1.67,1.63-.41.68-.61,1.44-.61,2.26s.2,1.58.61,2.28c.41.69.96,1.24,1.67,1.64.7.4,1.46.6,2.28.6Z"/>
    <path class="cls-4" d="M146.75,80.61c-2.09,0-3.8-.63-5.12-1.89s-1.98-3.29-1.98-6.08v-6.02h-2.38v-4.26h2.54l.73-5.86h3.99v5.86h4.12v4.26h-4.12v5.95c0,1.13.25,1.97.74,2.54.5.56,1.23.85,2.19.85.44,0,.86-.06,1.25-.2l1.22,4.26c-.9.39-1.97.59-3.2.59Z"/>
    <path class="cls-4" d="M168.03,80.25l-8.42-23.75h5.71l5.31,15.97,5.25-15.97h5.71l-8.42,23.75h-5.15Z"/>
    <path class="cls-4" d="M190.14,80.54c-1.69,0-3.26-.41-4.69-1.24-1.43-.82-2.56-1.95-3.4-3.37-.84-1.42-1.25-2.97-1.25-4.64s.42-3.18,1.25-4.59c.84-1.41,1.97-2.53,3.4-3.37,1.43-.83,2.99-1.25,4.69-1.25s3.26.42,4.69,1.25c1.43.84,2.57,1.96,3.42,3.37.85,1.41,1.27,2.94,1.27,4.59s-.42,3.22-1.27,4.64c-.85,1.42-1.99,2.54-3.42,3.37-1.43.82-2.99,1.24-4.69,1.24ZM190.14,75.66c.81,0,1.56-.2,2.23-.59.67-.39,1.2-.92,1.58-1.58.38-.66.58-1.39.58-2.2s-.19-1.5-.58-2.16c-.39-.66-.91-1.18-1.58-1.56-.67-.38-1.41-.57-2.23-.57s-1.55.19-2.21.57c-.66.38-1.19.9-1.58,1.56-.4.66-.59,1.38-.59,2.16s.2,1.53.59,2.2c.4.66.92,1.19,1.58,1.58.66.39,1.4.59,2.21.59Z"/>
    <path class="cls-4" d="M209.18,80.54c-1.43,0-2.68-.32-3.75-.96-1.07-.64-1.9-1.64-2.49-2.99-.59-1.35-.89-3.05-.89-5.09v-9.14h4.88v9.14c0,.95.16,1.76.48,2.41.32.65.74,1.13,1.27,1.45.53.31,1.12.47,1.78.47s1.25-.16,1.78-.47c.53-.31.95-.8,1.27-1.45.32-.65.48-1.45.48-2.41v-9.14h4.88v17.89h-4.46l-.3-2.54c-.53.85-1.22,1.53-2.08,2.05s-1.81.78-2.87.78Z"/>
    <path class="cls-4" d="M231.09,80.54c-1.69,0-3.26-.41-4.69-1.24-1.43-.82-2.56-1.95-3.4-3.37-.84-1.42-1.25-2.97-1.25-4.64s.42-3.18,1.25-4.59c.84-1.41,1.97-2.53,3.4-3.37,1.43-.83,2.99-1.25,4.69-1.25,1.54,0,2.98.35,4.32,1.06,1.34.71,2.45,1.65,3.33,2.85l-4.03,2.64c-.42-.5-.95-.89-1.58-1.19-.64-.29-1.32-.44-2.05-.44-.81,0-1.55.19-2.21.57-.66.38-1.19.9-1.58,1.56-.4.66-.59,1.38-.59,2.16s.2,1.53.59,2.2c.4.66.92,1.19,1.58,1.58.66.39,1.4.59,2.21.59.77,0,1.48-.16,2.15-.49.66-.33,1.19-.78,1.58-1.37l4.03,2.67c-.86,1.26-1.97,2.25-3.33,2.98-1.36.73-2.84,1.09-4.42,1.09Z"/>
    <path class="cls-4" d="M241.39,80.25v-25.38h4.88v9.86c.53-.8,1.2-1.45,2.03-1.94.83-.49,1.75-.73,2.79-.73,1.43,0,2.67.32,3.73.96,1.06.64,1.88,1.64,2.48,2.99.59,1.36.89,3.05.89,5.09v9.14h-4.85v-9.14c0-.95-.16-1.76-.48-2.41-.32-.65-.75-1.13-1.29-1.45-.54-.31-1.13-.47-1.77-.47s-1.25.15-1.78.46c-.53.3-.95.78-1.27,1.43-.32.65-.48,1.46-.48,2.44v9.14h-4.88Z"/>
    <path class="cls-4" d="M270.53,80.54c-1.85,0-3.51-.41-5-1.24s-2.65-1.94-3.48-3.35c-.84-1.41-1.25-2.96-1.25-4.65s.42-3.18,1.25-4.59c.84-1.41,1.96-2.53,3.38-3.37,1.42-.83,2.98-1.25,4.67-1.25s3.28.42,4.69,1.25c1.41.84,2.52,1.96,3.35,3.37.83,1.41,1.24,2.94,1.24,4.59,0,.5-.04,1.13-.13,1.89h-13.2c.18.56.47,1.06.89,1.5.42.43.94.78,1.57,1.02s1.3.37,2.03.37c.92,0,1.71-.12,2.36-.37s1.22-.62,1.7-1.12l3.86,2.41c-.86,1.08-2.01,1.95-3.45,2.59-1.44.64-2.93.96-4.47.96ZM274.32,69.39c-.09-.5-.32-.96-.69-1.4-.37-.43-.86-.78-1.47-1.04-.61-.26-1.28-.39-2.03-.39s-1.38.13-1.96.39c-.58.26-1.06.61-1.42,1.04-.36.43-.59.9-.68,1.4h8.25Z"/>
    <path class="cls-4" d="M282.24,80.25v-17.89h4.42l.36,2.51c.51-.85,1.22-1.5,2.13-1.95.91-.46,1.97-.68,3.18-.68.64,0,1.2.04,1.68.13l-.99,4.59c-.15-.02-.34-.03-.56-.03-1.52,0-2.79.44-3.81,1.33-1.02.89-1.53,2.43-1.53,4.62v7.38h-4.88Z"/>
  </g>
  <g class="cls-6">
    <path class="cls-1" d="M565.35,15.18c-1.68-1.65-4.18-1.61-5.76.07l-12.04,11.92c-1.12,1.1-1.69,2.71-1.15,4.18.54,1.47,1.93,1.99,3.65,2.61,2.36.85,4.3,2.51,4.3,5.01,0,2.73-2.34,5.12-5.1,5.12s-5.11-2.44-5.11-5.17v-20.97c0-2.26-1.73-4.05-4.01-4.05s-4.16,1.93-4.16,4.19v20.97c0,7.24,5.98,13.08,13.28,13.08s13.26-5.95,13.26-13.18c0-5.12-3.52-8.15-5.69-9.53l8.54-8.46c1.69-1.6,1.64-4.16-.02-5.79"/>
    <path class="cls-1" d="M520.65,44.1c-2.8,0-5.11-2.26-5.11-5.02s2.31-5.04,5.11-5.04,5.1,2.28,5.1,5.04-2.3,5.02-5.1,5.02M520.65,25.99c-7.31,0-13.28,5.88-13.28,13.09,0,1.75.42,3.49,1.06,5.02h-8.22c-2.76,0-5.09-2.31-5.09-5.03s2.4-5.03,5.16-5.03c2.28,0,4.03-1.78,4.03-4.02s-1.82-4.02-4.1-4.02c-7.31,0-13.26,5.88-13.26,13.09s5.83,12.95,13.05,13.06c.07,0,.14,0,.21,0h20.46c.07,0,.14,0,.21,0,7.21-.11,13.05-5.92,13.05-13.06s-5.96-13.09-13.27-13.09"/>
    <path class="cls-1" d="M520.65,23.98c2.74,0,5.1-2.3,5.1-5.01s-2.36-5.05-5.1-5.05-5.11,2.25-5.11,4.96,2.37,5.1,5.11,5.1"/>
    <path class="cls-1" d="M495.03,58.32c.2,0,.37-.07.51-.21.14-.14.21-.31.21-.5s-.07-.37-.21-.51c-.14-.14-.31-.21-.51-.21s-.36.07-.5.21c-.14.14-.21.31-.21.51s.07.36.21.5c.14.14.31.21.5.21"/>
    <path class="cls-1" d="M497.13,58.11c.14-.14.21-.31.21-.5s-.07-.37-.21-.51c-.14-.14-.31-.21-.51-.21s-.37.07-.51.21c-.14.14-.21.31-.21.51s.07.36.21.5c.14.14.31.21.51.21s.37-.07.51-.21"/>
    <path class="cls-1" d="M501.91,64.96c-.2,0-.37.07-.51.21-.14.14-.21.31-.21.5s.07.37.21.51c.14.14.31.21.51.21s.36-.07.5-.21c.14-.14.21-.31.21-.51s-.07-.36-.21-.5c-.14-.14-.31-.21-.5-.21"/>
    <path class="cls-1" d="M500.32,64.96c-.2,0-.37.07-.51.21-.14.14-.21.31-.21.5s.07.37.21.51c.14.14.31.21.51.21s.36-.07.5-.21c.14-.14.21-.31.21-.51s-.07-.36-.21-.5c-.14-.14-.31-.21-.51-.21"/>
    <path class="cls-1" d="M496.85,61.66c0,.25-.05.48-.16.68-.1.2-.25.35-.43.45-.18.1-.38.15-.61.15-.23,0-.45-.06-.65-.17-.2-.12-.35-.27-.47-.47-.12-.19-.18-.41-.18-.64s.06-.45.18-.64c.12-.19.27-.35.47-.47.2-.12.41-.17.65-.17h1.19v1.28ZM504.04,62.1c0,.26-.06.46-.17.61-.11.15-.28.23-.51.23h-.91c-.23,0-.4-.07-.52-.23-.12-.15-.18-.36-.18-.61v-2.82h-1.29v2.82c0,.26-.06.46-.18.61-.12.15-.29.23-.51.23h-.94c-.23,0-.4-.07-.51-.23-.11-.15-.17-.36-.17-.61v-3h-2.49c-.47,0-.9.12-1.3.35s-.71.55-.94.94c-.23.39-.35.82-.35,1.29s.12.89.35,1.29c.23.39.54.7.94.93.4.23.83.34,1.3.34.36,0,.69-.07.99-.22.3-.14.56-.35.77-.63.13.27.32.48.55.63.24.14.53.22.86.22h.94c.57,0,1.02-.22,1.34-.65.3.43.75.65,1.34.65h.91c.39,0,.74-.09,1.04-.27.3-.18.53-.43.69-.75.16-.32.24-.69.24-1.1v-3h-1.29v3Z"/>
    <path class="cls-1" d="M504.65,56.83c-.21,0-.38.07-.53.22-.15.14-.22.32-.22.52s.07.39.22.53c.15.14.33.22.53.22s.38-.07.53-.22c.14-.15.22-.32.22-.53s-.07-.37-.22-.52c-.14-.15-.32-.22-.53-.22"/>
    <path class="cls-1" d="M519.39,62.1c0,.26-.06.46-.17.61-.11.15-.28.23-.51.23h-.82c-.22,0-.39-.07-.51-.23-.12-.15-.18-.36-.18-.61v-3h-1.28v2.9c0,.3-.08.53-.23.7-.15.16-.34.25-.57.25s-.42-.08-.56-.25c-.15-.16-.22-.4-.22-.7v-2.48h-1.29v2.48c0,.3-.07.53-.22.7-.15.16-.34.25-.56.25s-.42-.08-.56-.25c-.15-.16-.22-.4-.22-.7v-2.48h-1.29v2.58c0,.26-.06.46-.18.61-.12.15-.29.23-.52.23h-.93c-.22,0-.39-.07-.51-.23-.12-.15-.18-.36-.18-.61v-5.92h-1.29v5.92c0,.41.08.78.24,1.1.16.32.39.57.69.75.3.18.65.27,1.04.27h.93c.61,0,1.06-.23,1.36-.69.16.23.36.4.61.51.24.12.52.17.81.17s.58-.06.83-.19c.25-.13.45-.31.61-.55.15.24.35.42.6.55.25.13.52.19.83.19s.57-.06.81-.17c.24-.12.44-.29.61-.51.29.45.73.68,1.32.69h0s.86,0,.86,0c.39,0,.73-.09,1.03-.27.3-.18.53-.43.69-.75.16-.32.24-.69.24-1.1v-3h-1.29v3Z"/>
    <path class="cls-1" d="M520,56.83c-.21,0-.38.07-.53.22-.15.14-.22.32-.22.52s.07.39.22.53c.15.14.33.22.53.22s.38-.07.53-.22c.14-.15.22-.32.22-.53s-.07-.37-.22-.52c-.14-.15-.32-.22-.53-.22"/>
    <path class="cls-1" d="M523.07,65.93c-.06-.06-.08-.13-.08-.21s.03-.14.08-.2c.06-.05.12-.08.2-.08.11,0,.2.04.27.12l.05.06.41-.42-.05-.05c-.09-.09-.19-.17-.31-.23-.12-.06-.25-.09-.39-.09-.24,0-.44.08-.61.24-.17.16-.25.35-.25.58,0,.13.03.25.09.36h-.32v.6h1.9v-.6h-.8c-.07,0-.14-.03-.19-.09"/>
    <path class="cls-1" d="M525.75,61.67c0,.42-.1.74-.27.95-.17.22-.45.32-.83.32h-.88v-6.17h-1.29v6.17h-.97v1.27h3.14c.48,0,.9-.08,1.26-.29.36-.21.64-.51.83-.9.2-.39.3-.85.3-1.38v-5.49h-1.29v5.51Z"/>
    <rect class="cls-1" x="528.54" y="56.16" width="1.29" height="8.06"/>
    <path class="cls-3" d="M491.83,84.74c-.44-.32-.72-.83-.72-1.4,0-.96.79-1.72,2.08-1.72h2.62v-.78c-.02-1.58-1.06-2.6-2.61-2.6h-1.93v-.72h1.97c1.9,0,3.29,1.33,3.3,3.28v1.54s-3.34,0-3.34,0c-.89,0-1.36.44-1.36.99,0,.37.2.68.45.85l-.45.55ZM497.54,82.34v-.72h2.97c.6,0,.85-.42.85-1.1v-5.7h.73v5.7c0,.68.25,1.1.86,1.1h.25v.72h-.25c-.6,0-.99-.25-1.22-.69-.24.44-.64.69-1.22.69h-2.97ZM498.16,81.11v-5.81h.73v5.81h-.73ZM503.01,82.34v-.72h3.92v.72h-3.92ZM506.73,82.34v-.72h3.92v.72h-3.92ZM510.45,82.34v-.72h1.03v-4.1h.73v1.64c.71-.87,1.62-1.64,2.71-1.64,1.37,0,2.31,1.04,2.31,2.51v.5c0,1.13-.58,1.81-1.62,1.81h-5.16ZM512.21,81.62h3.4c.61,0,.89-.41.89-1.09v-.5c0-1.07-.63-1.79-1.63-1.79s-1.9.89-2.65,1.83v1.54ZM518.19,82.34v-.72h2.73c.75,0,1.08-.48,1.08-1.28v-5.52h.73v5.51c0,1.25-.69,2.03-1.82,2.02h-2.72ZM518.46,84.23v-.35h.43c-.13-.14-.22-.31-.22-.51,0-.42.36-.75.8-.75.24,0,.48.12.64.29l-.25.23c-.08-.1-.22-.17-.37-.17-.25,0-.46.18-.46.43s.21.48.46.48h.72v.35h-1.75ZM518.86,81.11v-5.81h.73v5.81h-.73ZM524.48,82.34v-7.53h.72v7.53h-.72Z"/>
    <text class="cls-5" transform="translate(526.06 82.34) scale(1.01 1)"><tspan x="0" y="0"> </tspan></text>
    <path class="cls-3" d="M529.27,79.93c0-1.33,1.1-2.41,2.45-2.41h2.3v3c0,.68.25,1.1.85,1.1h.27v.72h-.27c-.7,0-1.15-.37-1.32-.99-.38.63-1.06.99-1.83.99-1.35,0-2.45-1.07-2.45-2.41ZM533.28,79.93v-1.69h-1.57c-.95,0-1.72.76-1.72,1.69s.77,1.69,1.72,1.69c.86,0,1.57-.64,1.57-1.69ZM530.56,76.47c0-.27.22-.48.48-.48s.49.21.49.48-.23.47-.49.47-.48-.21-.48-.47ZM532.13,76.47c0-.27.22-.48.48-.48s.49.21.49.48-.22.47-.49.47-.48-.21-.48-.47ZM534.95,82.34v-.72h3.92v.72h-3.92ZM538.67,82.34v-.72h.58c.6,0,.85-.42.85-1.1v-3h.73v3c0,.68.25,1.1.85,1.1h.58v.72h-.58c-.59,0-.98-.25-1.21-.69-.24.44-.64.69-1.22.69h-.58ZM539.2,83.71c0-.26.22-.47.48-.47s.49.21.49.47-.23.47-.49.47-.48-.21-.48-.47ZM540.77,83.71c0-.26.22-.47.48-.47s.49.21.49.47-.23.47-.49.47-.48-.21-.48-.47ZM542.07,82.34v-.72h2.53l-1.74-2.57v-1.53h3.6c1.17,0,2.01.33,2.01,1.37,0,.89-.94,1.81-1.81,2.73h2.59v.72h-7.17ZM545.46,81.62h.32c.87-.94,1.87-1.85,1.87-2.55s-.54-.83-1.43-.83h-2.54v.75l1.77,2.62ZM549.04,82.34v-.72h1.64c-.56-.35-.93-.97-.93-1.69,0-1.33,1.1-2.41,2.45-2.41s2.45,1.08,2.45,2.41v.83c0,.51.28.86.79.86h.25v.72h-.25c-.71,0-1.16-.4-1.27-1.04-.42.63-1.16,1.04-1.97,1.04h-3.16ZM553.92,79.93c0-.93-.77-1.69-1.71-1.69s-1.72.76-1.72,1.69.77,1.69,1.72,1.69,1.71-.76,1.71-1.69ZM555.51,82.34v-.72h5.21v-.78c0-1.58-1.07-2.6-2.61-2.6h-1.93v-.72h1.96c1.91,0,3.31,1.33,3.31,3.28v.82s0,.72,0,.72h-5.94ZM558.29,83.67c0-.26.23-.48.5-.48s.5.22.5.48-.23.49-.5.49-.5-.22-.5-.49Z"/>
  </g>
</svg>